<?xml version="1.0" encoding="UTF-8"?>
<svg version="1.1" xmlns="http://www.w3.org/2000/svg" width="619" height="403">
<path d="M0 0 C-0.71799859 3.21068075 -1.5409018 4.97219196 -3.75 7.4375 C-4.23984375 7.99308594 -4.7296875 8.54867187 -5.234375 9.12109375 C-8.98927984 13.11691063 -12.93588842 16.93149314 -16.828125 20.79296875 C-18.63548329 22.59107887 -20.44277307 24.38925786 -22.25 26.1875 C-23.17296875 27.10208984 -24.0959375 28.01667969 -25.046875 28.95898438 C-25.9234375 29.83232422 -26.8 30.70566406 -27.703125 31.60546875 C-28.90437012 32.79885864 -28.90437012 32.79885864 -30.12988281 34.01635742 C-32.0524502 35.86477029 -32.0524502 35.86477029 -33 38 C-33.66 38 -34.32 38 -35 38 C-35 38.66 -35 39.32 -35 40 C-35.66 40 -36.32 40 -37 40 C-37.33 40.99 -37.66 41.98 -38 43 C-38.66 43 -39.32 43 -40 43 C-40 43.66 -40 44.32 -40 45 C-40.66 45 -41.32 45 -42 45 C-42.268125 45.639375 -42.53625 46.27875 -42.8125 46.9375 C-44 49 -44 49 -47 50 C-47.73323796 52.01508358 -47.73323796 52.01508358 -48 54 C-47.01 54.78375 -46.02 55.5675 -45 56.375 C-44.01 57.24125 -43.02 58.1075 -42 59 C-42 59.66 -42 60.32 -42 61 C-41.34 61 -40.68 61 -40 61 C-40 61.66 -40 62.32 -40 63 C-39.40977051 63.26353271 -38.81954102 63.52706543 -38.21142578 63.79858398 C-35.90839473 65.04976701 -34.43638558 66.34804978 -32.6171875 68.22265625 C-31.70259766 69.15368164 -31.70259766 69.15368164 -30.76953125 70.10351562 C-30.14433594 70.74998047 -29.51914063 71.39644531 -28.875 72.0625 C-27.62463926 73.3472393 -26.37213484 74.62989681 -25.1171875 75.91015625 C-24.56659668 76.47871338 -24.01600586 77.04727051 -23.44873047 77.63305664 C-22.02585988 79.10729905 -22.02585988 79.10729905 -20 80 C-20 80.66 -20 81.32 -20 82 C-18.515 82.495 -18.515 82.495 -17 83 C-17 83.66 -17 84.32 -17 85 C-16.34 85 -15.68 85 -15 85 C-15 85.66 -15 86.32 -15 87 C-13.02 87.99 -13.02 87.99 -11 89 C-11 90.32 -11 91.64 -11 93 C-14.87474457 93.11668214 -18.74903396 93.18741231 -22.625 93.25 C-23.71941406 93.28351563 -24.81382812 93.31703125 -25.94140625 93.3515625 C-32.20962433 93.4275409 -36.33204054 93.42227739 -41 89 C-41 88.34 -41 87.68 -41 87 C-42.485 86.505 -42.485 86.505 -44 86 C-44 85.34 -44 84.68 -44 84 C-44.66 84 -45.32 84 -46 84 C-46 83.34 -46 82.68 -46 82 C-46.5775 81.773125 -47.155 81.54625 -47.75 81.3125 C-50.55730887 79.67490316 -51.99107964 77.52735142 -54 75 C-55.485 74.505 -55.485 74.505 -57 74 C-57.495 75.485 -57.495 75.485 -58 77 C-60.4375 79.6875 -60.4375 79.6875 -63 82 C-63.66 82 -64.32 82 -65 82 C-65.66 83.32 -66.32 84.64 -67 86 C-67.66 86 -68.32 86 -69 86 C-69.66 87.32 -70.32 88.64 -71 90 C-71.66 90 -72.32 90 -73 90 C-73.2371875 90.56203125 -73.474375 91.1240625 -73.71875 91.703125 C-75.28947697 94.51894042 -77.21471464 96.47955416 -79.5 98.75 C-80.2940625 99.54921875 -81.088125 100.3484375 -81.90625 101.171875 C-84 103 -84 103 -86 103 C-86.21785156 103.54398437 -86.43570313 104.08796875 -86.66015625 104.6484375 C-88.44794609 107.7861911 -90.87431985 110.12531454 -93.4375 112.625 C-93.92798828 113.11484375 -94.41847656 113.6046875 -94.92382812 114.109375 C-100.77630925 119.89077336 -100.77630925 119.89077336 -104.54370117 120.22705078 C-106.02833862 120.21134033 -106.02833862 120.21134033 -107.54296875 120.1953125 C-109.15268555 120.18564453 -109.15268555 120.18564453 -110.79492188 120.17578125 C-112.47424805 120.15064453 -112.47424805 120.15064453 -114.1875 120.125 C-115.31865234 120.11597656 -116.44980469 120.10695313 -117.61523438 120.09765625 C-120.41036828 120.07406862 -123.20507845 120.041153 -126 120 C-126.33 118.68 -126.66 117.36 -127 116 C-126.56429687 115.64808594 -126.12859375 115.29617187 -125.6796875 114.93359375 C-121.84210972 111.75222516 -118.53266603 108.44378635 -115.34765625 104.61328125 C-113.67247934 102.60792454 -111.94990081 100.74098287 -110 99 C-109.34 99 -108.68 99 -108 99 C-107.773125 98.443125 -107.54625 97.88625 -107.3125 97.3125 C-105.62449964 94.33840412 -103.53323483 92.27991135 -101 90 C-100.34 90 -99.68 90 -99 90 C-98.73646729 89.40977051 -98.47293457 88.81954102 -98.20141602 88.21142578 C-96.95023299 85.90839473 -95.65195022 84.43638558 -93.77734375 82.6171875 C-92.84631836 81.70259766 -92.84631836 81.70259766 -91.89648438 80.76953125 C-91.25001953 80.14433594 -90.60355469 79.51914063 -89.9375 78.875 C-88.6527607 77.62463926 -87.37010319 76.37213484 -86.08984375 75.1171875 C-85.52128662 74.56659668 -84.95272949 74.01600586 -84.36694336 73.44873047 C-82.89270095 72.02585988 -82.89270095 72.02585988 -82 70 C-81.34 70 -80.68 70 -80 70 C-80 69.34 -80 68.68 -80 68 C-79.34 68 -78.68 68 -78 68 C-77.505 66.515 -77.505 66.515 -77 65 C-76.34 65 -75.68 65 -75 65 C-75 61.23085596 -75.00474006 59.99288991 -77 57 C-78.32407669 56.31513275 -79.65909241 55.65129797 -81 55 C-83.75 52.5 -83.75 52.5 -86 50 C-86 49.34 -86 48.68 -86 48 C-86.59941406 47.73832031 -87.19882813 47.47664063 -87.81640625 47.20703125 C-90.13061764 45.92779812 -91.29659445 44.73749558 -92.9375 42.6875 C-95.4724393 39.60981552 -98.14031219 36.78443287 -101 34 C-102.33333333 32.66666667 -103.66666667 31.33333333 -105 30 C-104.67 29.01 -104.34 28.02 -104 27 C-100.33417393 26.79478951 -96.6698406 26.67174799 -93 26.5625 C-91.97003906 26.50384766 -90.94007813 26.44519531 -89.87890625 26.38476562 C-84.15519883 26.25716705 -80.70332418 26.61564371 -76.25 30.40234375 C-74.328125 32.28881836 -74.328125 32.28881836 -73 34 C-73 34.66 -73 35.32 -73 36 C-72.401875 36.268125 -71.80375 36.53625 -71.1875 36.8125 C-69.01683117 37.99086308 -67.69182788 39.23060981 -66 41 C-61.72046432 37.54345195 -58.04041099 33.97920906 -54.546875 29.734375 C-52.41247327 27.34125791 -50.01324051 25.36196762 -47.515625 23.359375 C-45.74087049 21.8811002 -45.74087049 21.8811002 -44 19 C-43.34 19 -42.68 19 -42 19 C-41.72357666 18.41573242 -41.44715332 17.83146484 -41.16235352 17.22949219 C-31.90327486 -0.53020247 -18.49885915 -2.14081753 0 0 Z " fill="#0D0C0D" transform="translate(252,111)"/>
<path d="M0 0 C1.22332031 -0.01675781 2.44664062 -0.03351563 3.70703125 -0.05078125 C8.79960502 0.48076685 11.11066178 2.06464559 14.42578125 5.90625 C15.11027344 6.8653125 15.79476563 7.824375 16.5 8.8125 C17.19738281 9.7715625 17.89476562 10.730625 18.61328125 11.71875 C20.1875 14.3125 20.1875 14.3125 20.1875 17.3125 C20.8475 17.3125 21.5075 17.3125 22.1875 17.3125 C23.89062367 19.53190157 25.49066512 21.75286507 27.0625 24.0625 C29.85780546 28.14348008 32.52506822 31.93965585 36.1875 35.3125 C43.06645116 25.71247527 43.06645116 25.71247527 49.875 16.0625 C50.4215625 15.28519531 50.968125 14.50789062 51.53125 13.70703125 C52.7190861 11.98971161 53.88310706 10.25582572 55.03125 8.51171875 C55.6396875 7.60035156 56.248125 6.68898437 56.875 5.75 C57.68517578 4.51056641 57.68517578 4.51056641 58.51171875 3.24609375 C60.48107334 0.97376153 61.23499848 0.62081432 64.1875 0.3125 C66.39428314 0.2198696 68.60377925 0.18251417 70.8125 0.1875 C72.53339844 0.18363281 72.53339844 0.18363281 74.2890625 0.1796875 C77.1875 0.3125 77.1875 0.3125 79.1875 1.3125 C80.36869915 4.56098757 80.31426287 7.73910352 80.31689453 11.16674805 C80.32004669 12.3444426 80.32319885 13.52213715 80.32644653 14.73551941 C80.32341019 16.63567558 80.32341019 16.63567558 80.3203125 18.57421875 C80.32126923 19.87575394 80.32222595 21.17728912 80.32321167 22.51826477 C80.32468362 25.26780386 80.3225492 28.0173104 80.31787109 30.7668457 C80.31215722 34.29781764 80.31546641 37.82871384 80.32144356 41.35968304 C80.32591451 44.72286778 80.32279016 48.08603185 80.3203125 51.44921875 C80.32233673 52.72206223 80.32436096 53.9949057 80.32644653 55.30632019 C80.32171829 57.05867729 80.32171829 57.05867729 80.31689453 58.84643555 C80.31609894 59.88027878 80.31530334 60.91412201 80.31448364 61.97929382 C80.1875 64.3125 80.1875 64.3125 79.1875 65.3125 C77.78401265 65.41110131 76.37569523 65.44328937 74.96875 65.4453125 C73.69451172 65.44724609 73.69451172 65.44724609 72.39453125 65.44921875 C71.50121094 65.44535156 70.60789062 65.44148438 69.6875 65.4375 C68.79417969 65.44136719 67.90085937 65.44523437 66.98046875 65.44921875 C66.13097656 65.44792969 65.28148437 65.44664062 64.40625 65.4453125 C63.62185547 65.44418457 62.83746094 65.44305664 62.02929688 65.44189453 C60.1875 65.3125 60.1875 65.3125 59.1875 64.3125 C59.02891158 62.16863343 58.93620702 60.01983162 58.87109375 57.87109375 C58.82919922 56.56591797 58.78730469 55.26074219 58.74414062 53.91601562 C58.70432392 52.5273467 58.66461175 51.13867478 58.625 49.75 C58.58182011 48.35740817 58.538206 46.96482972 58.49414062 45.57226562 C58.38764124 42.15245199 58.28563077 38.73256237 58.1875 35.3125 C57.54683594 36.29089844 56.90617187 37.26929688 56.24609375 38.27734375 C42.99196017 58.41026992 42.99196017 58.41026992 39.1875 60.3125 C33.50321627 60.87160987 33.50321627 60.87160987 31.1875 60.3125 C27.44044759 57.10157329 24.83063679 53.51555905 22.1875 49.375 C19.43041494 45.06705459 16.51178415 41.18506018 13.1875 37.3125 C13.16244385 38.12517334 13.1373877 38.93784668 13.11157227 39.77514648 C12.99600882 43.43360752 12.87310416 47.09178528 12.75 50.75 C12.71068359 52.02939453 12.67136719 53.30878906 12.63085938 54.62695312 C12.58896484 55.84189453 12.54707031 57.05683594 12.50390625 58.30859375 C12.46724854 59.43450928 12.43059082 60.5604248 12.39282227 61.72045898 C12.1875 64.3125 12.1875 64.3125 11.1875 65.3125 C9.6987814 65.39919432 8.206055 65.41953494 6.71484375 65.41015625 C5.81572266 65.40693359 4.91660156 65.40371094 3.99023438 65.40039062 C2.57194336 65.38782227 2.57194336 65.38782227 1.125 65.375 C0.17560547 65.37048828 -0.77378906 65.36597656 -1.75195312 65.36132812 C-4.10553065 65.3495011 -6.45898477 65.33302025 -8.8125 65.3125 C-8.85878728 57.13287612 -8.89435072 48.95330673 -8.91612434 40.77358437 C-8.92657321 36.97563688 -8.94075236 33.17777882 -8.96337891 29.37988281 C-8.98506821 25.71648654 -8.99706031 22.05317643 -9.00225449 18.38972092 C-9.00595731 16.99023456 -9.01318777 15.59075305 -9.02396011 14.19130325 C-9.03842225 12.23516669 -9.03931647 10.27894391 -9.03955078 8.32275391 C-9.043992 7.2080069 -9.04843323 6.09325989 -9.05300903 4.94473267 C-8.5363904 -0.70936031 -4.75941739 0.01495105 0 0 Z " fill="#0EADAC" transform="translate(436.8125,137.6875)"/>
<path d="M0 0 C1.06250977 -0.05607422 1.06250977 -0.05607422 2.14648438 -0.11328125 C6.07015472 -0.17849461 8.53631044 0.14116193 11.640625 2.6484375 C13.77962373 4.83121691 15.64369239 6.87141815 17.375 9.375 C19.17707129 11.89127802 20.85207675 13.91457675 23.0625 16.125 C25.11045274 18.17295274 26.23161331 19.7219145 27.3125 22.375 C27.9725 22.375 28.6325 22.375 29.3125 22.375 C30.74831474 23.98957079 32.11394783 25.66719075 33.4375 27.375 C34.16195312 28.303125 34.88640625 29.23125 35.6328125 30.1875 C36.46425781 31.2703125 36.46425781 31.2703125 37.3125 32.375 C37.35008423 30.97423218 37.35008423 30.97423218 37.38842773 29.54516602 C37.48336928 26.09174811 37.58261258 22.6385104 37.68481445 19.18530273 C37.72821813 17.68860731 37.76988913 16.19186061 37.80981445 14.69506836 C37.86738616 12.54785688 37.93111716 10.40090479 37.99609375 8.25390625 C38.03275146 6.9604126 38.06940918 5.66691895 38.10717773 4.33422852 C38.3125 1.375 38.3125 1.375 39.3125 0.375 C42.30429723 0.22172566 45.25706324 0.14334751 48.25 0.125 C49.08724609 0.104375 49.92449219 0.08375 50.78710938 0.0625 C51.58826172 0.05734375 52.38941406 0.0521875 53.21484375 0.046875 C54.32073853 0.03285645 54.32073853 0.03285645 55.44897461 0.01855469 C56.06393799 0.13618164 56.67890137 0.25380859 57.3125 0.375 C59.59795742 3.80318613 59.56507598 5.05271393 59.57128906 9.08398438 C59.57759338 10.25529907 59.58389771 11.42661377 59.59039307 12.63342285 C59.5863446 13.89908081 59.58229614 15.16473877 59.578125 16.46875 C59.58003845 17.76695679 59.5819519 19.06516357 59.58392334 20.40270996 C59.5868711 23.14986938 59.58258825 25.89689868 59.57324219 28.64404297 C59.5618477 32.16483671 59.56840905 35.68532553 59.58038712 39.20610809 C59.58935297 42.56451317 59.58307503 45.92283626 59.578125 49.28125 C59.58217346 50.54690796 59.58622192 51.81256592 59.59039307 53.11657715 C59.58093658 54.87354919 59.58093658 54.87354919 59.57128906 56.66601562 C59.56969788 57.69843384 59.56810669 58.73085205 59.56646729 59.79455566 C59.3125 62.375 59.3125 62.375 57.3125 65.375 C51.544253 67.297749 46.63456394 66.94669608 41.12792969 64.44970703 C37.76442344 62.45856199 35.3625387 59.60771804 32.8125 56.6875 C31.96993652 55.74910278 31.96993652 55.74910278 31.11035156 54.79174805 C30.0025392 53.55466955 28.89980668 52.31301918 27.80273438 51.06640625 C26.53338129 49.62569882 25.24516934 48.20164311 23.953125 46.78125 C19.45360262 41.79830786 19.45360262 41.79830786 18.3125 38.375 C16.8275 37.88 16.8275 37.88 15.3125 37.375 C14.6525 36.385 13.9925 35.395 13.3125 34.375 C13.29268066 35.10090332 13.27286133 35.82680664 13.25244141 36.57470703 C13.1568181 39.88348475 13.04728993 43.1916633 12.9375 46.5 C12.89109375 48.21316406 12.89109375 48.21316406 12.84375 49.9609375 C12.80507813 51.06953125 12.76640625 52.178125 12.7265625 53.3203125 C12.6951416 54.33625488 12.6637207 55.35219727 12.63134766 56.39892578 C12.27027243 59.76914557 11.81061729 63.87688271 9.3125 66.375 C6.65596557 66.47502455 4.03120728 66.51377463 1.375 66.5 C0.2622168 66.50580078 0.2622168 66.50580078 -0.87304688 66.51171875 C-6.43422998 66.50163501 -6.43422998 66.50163501 -8.6875 65.375 C-8.71062684 57.04771053 -8.72841683 48.72043437 -8.73931217 40.39312077 C-8.74454026 36.52679882 -8.75163654 32.66049879 -8.76293945 28.79418945 C-8.773771 25.06596599 -8.7797774 21.33776366 -8.78237724 17.60952568 C-8.78423101 16.18410344 -8.78785071 14.75868241 -8.79323006 13.33326912 C-8.80044393 11.34336592 -8.80090808 9.35344166 -8.80102539 7.36352539 C-8.803246 6.22879288 -8.80546661 5.09406036 -8.80775452 3.92494202 C-8.56097577 -1.30788851 -4.2218059 0.08226725 0 0 Z " fill="#131213" transform="translate(35.6875,137.625)"/>
<path d="M0 0 C1.15165146 -0.0049926 1.15165146 -0.0049926 2.3265686 -0.01008606 C3.95908001 -0.01515751 5.59160182 -0.01749432 7.22412109 -0.01733398 C9.68214987 -0.01949225 12.13970865 -0.03756564 14.59765625 -0.05664062 C41.92463111 -0.15751725 41.92463111 -0.15751725 52.234375 8.8046875 C56.64580749 13.54644465 58.13974772 18.20256179 58.6015625 24.66796875 C58.05963193 32.25499672 55.80446437 37.00837701 50.3515625 42.16796875 C47.4765625 44.10546875 47.4765625 44.10546875 45.3515625 45.16796875 C47.37957468 47.79687343 49.40832985 50.22328052 51.7890625 52.54296875 C54.77865999 55.60548325 57.0687214 58.54227994 59.3515625 62.16796875 C59.0215625 63.15796875 58.6915625 64.14796875 58.3515625 65.16796875 C55.28949773 65.41738129 52.22873167 65.6431102 49.1640625 65.85546875 C48.29974609 65.92830078 47.43542969 66.00113281 46.54492188 66.07617188 C41.59061857 66.39886596 38.27165339 66.59027032 34.3515625 63.16796875 C32.46357842 61.05301391 30.77127239 58.83257093 29.1015625 56.54296875 C28.22169317 55.36302838 27.34150148 54.18332831 26.4609375 53.00390625 C25.76484375 52.06804687 25.06875 51.1321875 24.3515625 50.16796875 C22.54040294 48.35680919 19.73878023 48.78597427 17.2890625 48.60546875 C15.3296875 48.46109375 13.3703125 48.31671875 11.3515625 48.16796875 C11.3515625 53.77796875 11.3515625 59.38796875 11.3515625 65.16796875 C5.3515625 66.16796875 5.3515625 66.16796875 -9.6484375 65.16796875 C-9.6484375 44.04796875 -9.6484375 22.92796875 -9.6484375 1.16796875 C-6.58175862 -0.36537069 -3.36519562 0.00506413 0 0 Z M11.3515625 17.16796875 C11.32470838 19.48040667 11.30523409 21.79293145 11.2890625 24.10546875 C11.27746094 25.39324219 11.26585937 26.68101562 11.25390625 28.0078125 C10.98623701 31.03095278 10.98623701 31.03095278 12.3515625 32.16796875 C15.09444313 32.32249724 17.7947789 32.39971915 20.5390625 32.41796875 C21.29509766 32.43859375 22.05113281 32.45921875 22.83007812 32.48046875 C27.71540485 32.51436521 31.17640517 31.9881449 35.3515625 29.16796875 C36.51355674 25.40857563 36.96170366 23.32723695 35.1015625 19.79296875 C32.25239252 17.14731091 29.61409828 17.0454014 25.90234375 17.0703125 C25.05478516 17.07353516 24.20722656 17.07675781 23.33398438 17.08007812 C22.45291016 17.08845703 21.57183594 17.09683594 20.6640625 17.10546875 C19.32504883 17.11223633 19.32504883 17.11223633 17.95898438 17.11914062 C15.75644263 17.13091892 13.55403651 17.14736711 11.3515625 17.16796875 Z " fill="#0BAEAC" transform="translate(358.6484375,137.83203125)"/>
<path d="M0 0 C1.32064453 0.00483398 1.32064453 0.00483398 2.66796875 0.00976562 C3.54839844 -0.00634766 4.42882812 -0.02246094 5.3359375 -0.0390625 C6.17769531 -0.03970703 7.01945312 -0.04035156 7.88671875 -0.04101562 C8.65951172 -0.04399658 9.43230469 -0.04697754 10.22851562 -0.05004883 C10.86853516 0.07281494 11.50855469 0.19567871 12.16796875 0.32226562 C14.30401183 3.52633025 14.41005783 4.3182731 14.36328125 7.99023438 C14.35828613 8.79485107 14.35329102 9.59946777 14.34814453 10.4284668 C14.32083252 11.95370972 14.32083252 11.95370972 14.29296875 13.50976562 C14.25171875 16.74789062 14.21046875 19.98601562 14.16796875 23.32226562 C23.40796875 23.32226562 32.64796875 23.32226562 42.16796875 23.32226562 C42.16796875 16.06226563 42.16796875 8.80226562 42.16796875 1.32226562 C44.43869954 0.18690023 45.71080154 0.1933415 48.23046875 0.18945312 C49.02710938 0.18816406 49.82375 0.186875 50.64453125 0.18554688 C51.89363281 0.19134766 51.89363281 0.19134766 53.16796875 0.19726562 C54.00070312 0.19339844 54.8334375 0.18953125 55.69140625 0.18554688 C56.88636719 0.18748047 56.88636719 0.18748047 58.10546875 0.18945312 C58.83636719 0.19058105 59.56726563 0.19170898 60.3203125 0.19287109 C62.16796875 0.32226562 62.16796875 0.32226562 64.16796875 1.32226562 C64.23739952 9.50187117 64.29074441 17.68135413 64.32340527 25.86118126 C64.33907881 29.65918745 64.36034734 33.45699244 64.39428711 37.25488281 C64.42682116 40.9182903 64.44480904 44.58150394 64.45260048 48.24504471 C64.45815478 49.64454832 64.46900074 51.04404102 64.48515892 52.44346237 C64.50685148 54.39954074 64.50819345 56.3558131 64.50854492 58.31201172 C64.51853767 59.98413223 64.51853767 59.98413223 64.5287323 61.69003296 C64.40968033 62.55866974 64.29062836 63.42730652 64.16796875 64.32226562 C60.29880585 66.90170756 57.08232085 66.58035499 52.60546875 66.50976562 C51.82494141 66.50912109 51.04441406 66.50847656 50.24023438 66.5078125 C44.44912289 66.4628427 44.44912289 66.4628427 42.16796875 65.32226562 C41.83796875 57.40226562 41.50796875 49.48226562 41.16796875 41.32226562 C32.25796875 41.32226562 23.34796875 41.32226562 14.16796875 41.32226562 C14.28648812 48.42771453 14.28648812 48.42771453 14.43823242 55.5324707 C14.4457251 56.41829834 14.45321777 57.30412598 14.4609375 58.21679688 C14.47664795 59.12276611 14.4923584 60.02873535 14.50854492 60.9621582 C14.16796875 63.32226562 14.16796875 63.32226562 12.89379883 65.11865234 C9.85629756 67.23703985 6.23444822 66.70919132 2.66796875 66.63476562 C1.50974609 66.63959961 1.50974609 66.63959961 0.328125 66.64453125 C-3.55634791 66.60750421 -5.53520976 66.52014662 -8.83203125 64.32226562 C-9.20625305 61.74145508 -9.20625305 61.74145508 -9.2043457 58.43554688 C-9.21057449 57.2008667 -9.21680328 55.96618652 -9.22322083 54.6940918 C-9.21453299 53.34097898 -9.20521503 51.98787009 -9.1953125 50.63476562 C-9.19479403 49.25236003 -9.19531123 47.86995369 -9.19682312 46.48754883 C-9.19673334 43.58891813 -9.18629346 40.69056526 -9.16821289 37.79199219 C-9.14552523 34.07264033 -9.14498093 30.3536946 -9.15173054 26.6342926 C-9.15506876 23.77930071 -9.14844325 20.92440177 -9.1386013 18.06942749 C-9.13474646 16.69787075 -9.13360226 15.32630367 -9.13518715 13.95474243 C-9.13555714 12.03946622 -9.12147538 10.12420354 -9.10668945 8.20898438 C-9.10208206 7.11803467 -9.09747467 6.02708496 -9.09272766 4.90307617 C-8.52081989 -0.7586267 -4.59810617 0.03872831 0 0 Z " fill="#0AADAB" transform="translate(270.83203125,137.677734375)"/>
<path d="M0 0 C0.83103745 -0.00953201 1.66207489 -0.01906403 2.51829529 -0.02888489 C3.41726028 -0.02797348 4.31622528 -0.02706207 5.24243164 -0.02612305 C6.16472061 -0.03040817 7.08700958 -0.0346933 8.0372467 -0.03910828 C9.98999205 -0.04485738 11.94275881 -0.04534758 13.89550781 -0.04101562 C16.88717124 -0.03785807 19.87784388 -0.06129909 22.86938477 -0.08666992 C24.76456581 -0.08894305 26.65974951 -0.08964635 28.55493164 -0.08862305 C29.45187241 -0.09783279 30.34881317 -0.10704254 31.27293396 -0.11653137 C32.10712357 -0.11030258 32.94131317 -0.10407379 33.80078125 -0.09765625 C34.53421249 -0.09828568 35.26764374 -0.0989151 36.02330017 -0.0995636 C40.29766494 0.72419302 42.74191105 5.43386444 45.21508789 8.7121582 C45.94211914 9.65961914 46.66915039 10.60708008 47.41821289 11.58325195 C48.96508789 14.2746582 48.96508789 14.2746582 47.96508789 18.2746582 C37.40508789 18.2746582 26.84508789 18.2746582 15.96508789 18.2746582 C15.96508789 20.2546582 15.96508789 22.2346582 15.96508789 24.2746582 C17.14538574 24.23800049 18.32568359 24.20134277 19.54174805 24.16357422 C23.93589885 24.03652965 28.32988873 23.95639032 32.7253418 23.89013672 C34.62470834 23.85501123 36.52388663 23.80729789 38.42260742 23.74658203 C41.15859427 23.66130638 43.89207367 23.62189367 46.62915039 23.59106445 C47.47313385 23.55493546 48.31711731 23.51880646 49.18667603 23.48158264 C52.72025416 23.47924841 55.03129825 23.5441747 57.87347412 25.76754761 C60.58377561 28.77584633 61.92790463 30.32648517 62.09008789 34.4621582 C60.75323029 37.8043022 59.87770778 39.13345842 56.96508789 41.2746582 C53.84203254 41.83120545 50.7691201 41.73982154 47.60571289 41.6652832 C46.70133484 41.65962341 45.79695679 41.65396362 44.86517334 41.64813232 C41.98126936 41.62577069 39.09861528 41.57557506 36.21508789 41.5246582 C34.25807461 41.50459291 32.30104181 41.48634219 30.34399414 41.4699707 C25.550545 41.4259066 20.75802824 41.35688072 15.96508789 41.2746582 C15.96508789 43.9146582 15.96508789 46.5546582 15.96508789 49.2746582 C26.85508789 49.2746582 37.74508789 49.2746582 48.96508789 49.2746582 C48.96508789 54.2746582 48.96508789 54.2746582 47.60961914 55.8996582 C46.70276367 56.5802832 46.70276367 56.5802832 45.77758789 57.2746582 C42.59366347 59.77400658 39.7844939 62.37232849 36.96508789 65.2746582 C34.84674754 67.39299855 30.11905415 66.43884934 27.18774414 66.44262695 C26.30606064 66.44595535 25.42437714 66.44928375 24.51597595 66.45271301 C22.64721195 66.45778604 20.77843885 66.46012122 18.90966797 66.45996094 C16.04322445 66.46214628 13.17716629 66.48029475 10.31079102 66.49926758 C8.49894338 66.50220159 6.68709391 66.50418633 4.87524414 66.50512695 C4.01375259 66.51231247 3.15226105 66.51949799 2.2646637 66.52690125 C-3.80609051 66.5034798 -3.80609051 66.5034798 -6.03491211 64.2746582 C-6.28887939 61.69384766 -6.28887939 61.69384766 -6.29370117 58.38793945 C-6.30000549 57.15325928 -6.30630981 55.9185791 -6.31280518 54.64648438 C-6.30922549 53.29337421 -6.30512356 51.94026533 -6.30053711 50.5871582 C-6.30188386 49.20475191 -6.30382447 47.82234608 -6.30633545 46.43994141 C-6.30928629 43.5413767 -6.30499047 40.64293517 -6.2956543 37.74438477 C-6.28425966 34.02505183 -6.29081936 30.30600752 -6.30279922 26.58668518 C-6.31001899 23.73170794 -6.30772939 20.87679936 -6.30254364 18.02182007 C-6.30120746 16.65025804 -6.30285377 15.27868981 -6.30750275 13.90713501 C-6.31256959 11.9918835 -6.30348042 10.0766102 -6.29370117 8.16137695 C-6.29210999 7.07042725 -6.2905188 5.97947754 -6.28887939 4.85546875 C-5.86041097 0.50138105 -3.93654803 0.02475612 0 0 Z " fill="#070606" transform="translate(105.034912109375,137.725341796875)"/>
<path d="M0 0 C1.76633789 -0.04350586 1.76633789 -0.04350586 3.56835938 -0.08789062 C12.26492411 -0.15045584 19.16697513 1.42723757 26.9375 5.3125 C26.28602929 10.78485396 24.90260537 15.34739463 20.9375 19.3125 C17.37791479 19.05824391 14.04556203 18.57257406 10.57421875 17.7578125 C4.30456221 16.29789248 -1.73699172 15.74427915 -8.0625 17.3125 C-9.86428505 18.75746819 -9.86428505 18.75746819 -11.0625 20.3125 C-6.06417495 23.15832055 -1.38589914 24.22290137 4.1875 25.25 C22.87726434 28.99508977 22.87726434 28.99508977 28.87890625 36.62890625 C31.56533229 40.90141409 31.37263253 45.45073074 30.9375 50.3125 C29.0652519 56.1632753 25.13631148 60.19623129 19.9375 63.3125 C4.70611537 68.85561863 -12.14236366 69.13800098 -27.3046875 63 C-29.61655052 61.84734308 -31.85608473 60.65438236 -34.0625 59.3125 C-33.63452798 53.60620646 -31.21904048 49.90171384 -28.0625 45.3125 C-24.11345867 45.72385847 -21.24968424 46.23227818 -17.5625 47.8125 C-9.72544107 50.93195679 0.13543383 51.42132329 7.9375 48.3125 C7.9375 47.3225 7.9375 46.3325 7.9375 45.3125 C3.4984377 43.70297245 -0.95094152 42.6262446 -5.55102539 41.61352539 C-25.54702056 37.17095304 -25.54702056 37.17095304 -31.625 30.5 C-33.99980804 25.23412129 -34.77004565 20.77265325 -33.125 15.25 C-30.22514382 8.49253698 -23.6904846 4.02394824 -17.0625 1.3125 C-11.55244268 -0.38537084 -5.70892201 0.04581799 0 0 Z " fill="#0DAEAD" transform="translate(561.0625,137.6875)"/>
<path d="M0 0 C3.11698536 2.60956914 5.40378501 4.53936548 6.0859375 8.65234375 C6.00436624 17.47563497 6.00436624 17.47563497 2.6875 21.25 C-0.52025204 23.61360677 -3.31590787 25.06833672 -7.3125 25.25 C-12.07059636 24.37013658 -15.42366802 23.13883198 -18.875 19.6875 C-20.80324735 15.07647373 -21.24780011 11.17431509 -20.3125 6.25 C-18.66439888 3.07105396 -16.34970833 1.0368477 -13.5 -1.125 C-8.35000258 -2.59642784 -4.65112529 -2.45719826 0 0 Z " fill="#05AEAD" transform="translate(190.3125,112.75)"/>
<path d="M0 0 C1.15165146 -0.0049926 1.15165146 -0.0049926 2.3265686 -0.01008606 C3.95908001 -0.01515751 5.59160182 -0.01749432 7.22412109 -0.01733398 C9.68214987 -0.01949225 12.13970865 -0.03756564 14.59765625 -0.05664062 C23.37970421 -0.0870897 31.72652373 0.28157551 40.3515625 2.16796875 C40.8465625 3.65296875 40.8465625 3.65296875 41.3515625 5.16796875 C25.8415625 5.16796875 10.3315625 5.16796875 -5.6484375 5.16796875 C-6.32453605 9.22456005 -6.78504528 12.59785315 -6.85375977 16.62255859 C-6.87370499 17.66318451 -6.89365021 18.70381042 -6.91419983 19.77597046 C-6.93091232 20.88243927 -6.94762482 21.98890808 -6.96484375 23.12890625 C-6.98562485 24.2746109 -7.00640594 25.42031555 -7.02781677 26.60073853 C-7.09301968 30.24808961 -7.15206102 33.89551059 -7.2109375 37.54296875 C-7.25415055 40.02084046 -7.29776572 42.49870519 -7.34179688 44.9765625 C-7.44867106 51.04029359 -7.55002059 57.10409474 -7.6484375 63.16796875 C-2.0384375 63.16796875 3.5715625 63.16796875 9.3515625 63.16796875 C9.3515625 57.88796875 9.3515625 52.60796875 9.3515625 47.16796875 C12.27403823 45.70673089 14.91010089 45.92020725 18.1640625 45.85546875 C19.38738281 45.81808594 20.61070312 45.78070313 21.87109375 45.7421875 C25.94839199 46.24098156 27.58748536 47.16170581 30.3515625 50.16796875 C30.3515625 51.48796875 30.3515625 52.80796875 30.3515625 54.16796875 C31.0115625 54.16796875 31.6715625 54.16796875 32.3515625 54.16796875 C32.3515625 54.82796875 32.3515625 55.48796875 32.3515625 56.16796875 C33.0115625 56.16796875 33.6715625 56.16796875 34.3515625 56.16796875 C35.3415625 58.14796875 36.3315625 60.12796875 37.3515625 62.16796875 C43.6215625 62.49796875 49.8915625 62.82796875 56.3515625 63.16796875 C56.6815625 61.84796875 57.0115625 60.52796875 57.3515625 59.16796875 C58.3415625 61.64296875 58.3415625 61.64296875 59.3515625 64.16796875 C57.09851949 66.42101176 52.13988799 65.7345058 49.1015625 65.91796875 C48.24175781 65.98628906 47.38195312 66.05460937 46.49609375 66.125 C41.56401387 66.42138076 38.25343676 66.56150024 34.3515625 63.16796875 C32.46320489 61.05334976 30.77126387 58.83255925 29.1015625 56.54296875 C28.22169317 55.36302838 27.34150148 54.18332831 26.4609375 53.00390625 C25.76484375 52.06804687 25.06875 51.1321875 24.3515625 50.16796875 C22.54040294 48.35680919 19.73878023 48.78597427 17.2890625 48.60546875 C15.3296875 48.46109375 13.3703125 48.31671875 11.3515625 48.16796875 C11.3515625 53.77796875 11.3515625 59.38796875 11.3515625 65.16796875 C5.3515625 66.16796875 5.3515625 66.16796875 -9.6484375 65.16796875 C-9.6484375 44.04796875 -9.6484375 22.92796875 -9.6484375 1.16796875 C-6.58175862 -0.36537069 -3.36519562 0.00506413 0 0 Z " fill="#359695" transform="translate(358.6484375,137.83203125)"/>
<path d="M0 0 C0.78552246 0.01047363 1.57104492 0.02094727 2.38037109 0.03173828 C3.23115234 0.03818359 4.08193359 0.04462891 4.95849609 0.05126953 C6.29267578 0.07640625 6.29267578 0.07640625 7.65380859 0.10205078 C8.99958984 0.11558594 8.99958984 0.11558594 10.37255859 0.12939453 C12.59157445 0.15300108 14.81005937 0.18592768 17.02880859 0.22705078 C17.02880859 1.21705078 17.02880859 2.20705078 17.02880859 3.22705078 C11.41880859 3.22705078 5.80880859 3.22705078 0.02880859 3.22705078 C0.02880859 22.69705078 0.02880859 42.16705078 0.02880859 62.22705078 C5.30880859 62.22705078 10.58880859 62.22705078 16.02880859 62.22705078 C16.08939453 60.65052734 16.14998047 59.07400391 16.21240234 57.44970703 C16.29678847 55.39631135 16.38143742 53.34292647 16.46630859 51.28955078 C16.505625 50.24863281 16.54494141 49.20771484 16.58544922 48.13525391 C16.62734375 47.14589844 16.66923828 46.15654297 16.71240234 45.13720703 C16.74906006 44.22076416 16.78571777 43.30432129 16.82348633 42.36010742 C17.02880859 40.22705078 17.02880859 40.22705078 18.02880859 39.22705078 C20.16234033 39.12701789 22.29918401 39.09624031 24.43505859 39.09423828 C25.73572266 39.09294922 27.03638672 39.09166016 28.37646484 39.09033203 C29.39764404 39.09347412 29.39764404 39.09347412 30.43945312 39.09667969 C32.52009374 39.10202838 34.60051848 39.09673398 36.68115234 39.09033203 C38.63214844 39.09226562 38.63214844 39.09226562 40.62255859 39.09423828 C41.82589844 39.09536621 43.02923828 39.09649414 44.26904297 39.09765625 C47.02880859 39.22705078 47.02880859 39.22705078 48.02880859 40.22705078 C48.10206027 43.08972645 48.12119064 45.92776978 48.09130859 48.78955078 C48.08679688 49.59585938 48.08228516 50.40216797 48.07763672 51.23291016 C48.06581377 53.23098834 48.04787773 55.22902861 48.02880859 57.22705078 C47.69880859 57.22705078 47.36880859 57.22705078 47.02880859 57.22705078 C46.69880859 51.94705078 46.36880859 46.66705078 46.02880859 41.22705078 C37.11880859 41.22705078 28.20880859 41.22705078 19.02880859 41.22705078 C19.14732797 48.33249968 19.14732797 48.33249968 19.29907227 55.43725586 C19.30656494 56.3230835 19.31405762 57.20891113 19.32177734 58.12158203 C19.33748779 59.02755127 19.35319824 59.93352051 19.36938477 60.86694336 C19.02880859 63.22705078 19.02880859 63.22705078 17.75463867 65.0234375 C14.7171374 67.141825 11.09528807 66.61397648 7.52880859 66.53955078 C6.37058594 66.54438477 6.37058594 66.54438477 5.18896484 66.54931641 C1.30449193 66.51228937 -0.67436992 66.42493177 -3.97119141 64.22705078 C-4.34541321 61.64624023 -4.34541321 61.64624023 -4.34350586 58.34033203 C-4.34973465 57.10565186 -4.35596344 55.87097168 -4.36238098 54.59887695 C-4.35369315 53.24576414 -4.34437519 51.89265525 -4.33447266 50.53955078 C-4.33395419 49.15714519 -4.33447138 47.77473885 -4.33598328 46.39233398 C-4.3358935 43.49370329 -4.32545361 40.59535041 -4.30737305 37.69677734 C-4.28468539 33.97742549 -4.28414108 30.25847976 -4.29089069 26.53907776 C-4.29422892 23.68408587 -4.28760341 20.82918692 -4.27776146 17.97421265 C-4.27390662 16.60265591 -4.27276242 15.23108883 -4.27434731 13.85952759 C-4.2747173 11.94425138 -4.26063554 10.0289887 -4.24584961 8.11376953 C-4.24124222 7.02281982 -4.23663483 5.93187012 -4.23188782 4.80786133 C-3.91466852 1.66749244 -3.26593919 0.37618571 0 0 Z " fill="#59B5B3" transform="translate(265.97119140625,137.77294921875)"/>
<path d="M0 0 C0.83103745 -0.00953201 1.66207489 -0.01906403 2.51829529 -0.02888489 C3.41726028 -0.02797348 4.31622528 -0.02706207 5.24243164 -0.02612305 C6.16472061 -0.03040817 7.08700958 -0.0346933 8.0372467 -0.03910828 C9.98999205 -0.04485738 11.94275881 -0.04534758 13.89550781 -0.04101562 C16.88717124 -0.03785807 19.87784388 -0.06129909 22.86938477 -0.08666992 C24.76456581 -0.08894305 26.65974951 -0.08964635 28.55493164 -0.08862305 C29.45187241 -0.09783279 30.34881317 -0.10704254 31.27293396 -0.11653137 C32.10712357 -0.11030258 32.94131317 -0.10407379 33.80078125 -0.09765625 C34.53421249 -0.09828568 35.26764374 -0.0989151 36.02330017 -0.0995636 C38.51822388 0.3812587 39.42760532 1.28823307 40.96508789 3.2746582 C40.96508789 3.9346582 40.96508789 4.5946582 40.96508789 5.2746582 C39.97508789 4.9446582 38.98508789 4.6146582 37.96508789 4.2746582 C37.96508789 3.6146582 37.96508789 2.9546582 37.96508789 2.2746582 C24.10508789 2.2746582 10.24508789 2.2746582 -4.03491211 2.2746582 C-3.84928711 5.2652832 -3.66366211 8.2559082 -3.47241211 11.3371582 C-2.5567548 28.9743338 -3.48572695 46.63971253 -4.03491211 64.2746582 C9.49508789 64.2746582 23.02508789 64.2746582 36.96508789 64.2746582 C36.63508789 64.9346582 36.30508789 65.5946582 35.96508789 66.2746582 C30.30510743 66.32400746 24.64525153 66.36035349 18.98510742 66.38452148 C17.05865295 66.39459402 15.13221381 66.40825264 13.20581055 66.42553711 C10.44063537 66.44973061 7.67566189 66.46112856 4.91040039 66.4699707 C4.04577179 66.48029327 3.18114319 66.49061584 2.29031372 66.50125122 C0.18055268 66.50164926 -1.92871929 66.39731063 -4.03491211 66.2746582 C-6.73833126 63.57123906 -6.28818663 62.16881775 -6.29370117 58.38793945 C-6.30000549 57.15325928 -6.30630981 55.9185791 -6.31280518 54.64648438 C-6.30922549 53.29337421 -6.30512356 51.94026533 -6.30053711 50.5871582 C-6.30188386 49.20475191 -6.30382447 47.82234608 -6.30633545 46.43994141 C-6.30928629 43.5413767 -6.30499047 40.64293517 -6.2956543 37.74438477 C-6.28425966 34.02505183 -6.29081936 30.30600752 -6.30279922 26.58668518 C-6.31001899 23.73170794 -6.30772939 20.87679936 -6.30254364 18.02182007 C-6.30120746 16.65025804 -6.30285377 15.27868981 -6.30750275 13.90713501 C-6.31256959 11.9918835 -6.30348042 10.0766102 -6.29370117 8.16137695 C-6.29210999 7.07042725 -6.2905188 5.97947754 -6.28887939 4.85546875 C-5.86041097 0.50138105 -3.93654803 0.02475612 0 0 Z " fill="#706B6C" transform="translate(105.034912109375,137.725341796875)"/>
<path d="M0 0 C0.79664063 -0.00128906 1.59328125 -0.00257813 2.4140625 -0.00390625 C3.66316406 0.00189453 3.66316406 0.00189453 4.9375 0.0078125 C5.77023437 0.00394531 6.60296875 0.00007812 7.4609375 -0.00390625 C8.25757813 -0.00261719 9.05421875 -0.00132812 9.875 0 C10.60589844 0.00112793 11.33679688 0.00225586 12.08984375 0.00341797 C13.9375 0.1328125 13.9375 0.1328125 15.9375 1.1328125 C16.00693077 9.31241804 16.06027566 17.49190101 16.09293652 25.67172813 C16.10861006 29.46973433 16.12987859 33.26753931 16.16381836 37.06542969 C16.19635241 40.72883717 16.21434029 44.39205081 16.22213173 48.05559158 C16.22768603 49.4550952 16.23853199 50.85458789 16.25469017 52.25400925 C16.27638273 54.21008761 16.2777247 56.16635998 16.27807617 58.12255859 C16.28473801 59.2373056 16.29139984 60.35205261 16.29826355 61.50057983 C16.17921158 62.36921661 16.06015961 63.23785339 15.9375 64.1328125 C12.0683371 66.71225443 8.8518521 66.39090187 4.375 66.3203125 C3.59447266 66.31966797 2.81394531 66.31902344 2.00976562 66.31835938 C-3.78134586 66.27338957 -3.78134586 66.27338957 -6.0625 65.1328125 C-5.7325 64.4728125 -5.4025 63.8128125 -5.0625 63.1328125 C1.2075 63.1328125 7.4775 63.1328125 13.9375 63.1328125 C13.9375 43.3328125 13.9375 23.5328125 13.9375 3.1328125 C8.3275 3.1328125 2.7175 3.1328125 -3.0625 3.1328125 C-3.7225 2.8028125 -4.3825 2.4728125 -5.0625 2.1328125 C-5.0625 9.3928125 -5.0625 16.6528125 -5.0625 24.1328125 C-14.9625 24.1328125 -24.8625 24.1328125 -35.0625 24.1328125 C-35.0625 17.2028125 -35.0625 10.2728125 -35.0625 3.1328125 C-34.7325 3.1328125 -34.4025 3.1328125 -34.0625 3.1328125 C-34.0625 9.7328125 -34.0625 16.3328125 -34.0625 23.1328125 C-24.8225 23.1328125 -15.5825 23.1328125 -6.0625 23.1328125 C-6.0625 15.8728125 -6.0625 8.6128125 -6.0625 1.1328125 C-3.79176921 -0.0025529 -2.51966721 0.00388838 0 0 Z " fill="#6EBAB7" transform="translate(319.0625,137.8671875)"/>
<path d="M0 0 C1.15165146 -0.0049926 1.15165146 -0.0049926 2.3265686 -0.01008606 C3.95908001 -0.01515751 5.59160182 -0.01749432 7.22412109 -0.01733398 C9.68214987 -0.01949225 12.13970865 -0.03756564 14.59765625 -0.05664062 C23.37970421 -0.0870897 31.72652373 0.28157551 40.3515625 2.16796875 C40.8465625 3.65296875 40.8465625 3.65296875 41.3515625 5.16796875 C25.8415625 5.16796875 10.3315625 5.16796875 -5.6484375 5.16796875 C-6.31947867 9.19421579 -6.78424763 12.53877908 -6.85375977 16.53076172 C-6.87370499 17.55136688 -6.89365021 18.57197205 -6.91419983 19.62350464 C-6.93091232 20.70809967 -6.94762482 21.7926947 -6.96484375 22.91015625 C-6.98562485 24.03366486 -7.00640594 25.15717346 -7.02781677 26.31472778 C-7.09300974 29.89074807 -7.15205634 33.46683952 -7.2109375 37.04296875 C-7.2541515 39.4726635 -7.2977667 41.90235115 -7.34179688 44.33203125 C-7.44866004 50.27726932 -7.55048177 56.22257761 -7.6484375 62.16796875 C-7.9784375 62.16796875 -8.3084375 62.16796875 -8.6484375 62.16796875 C-8.67158402 54.64025718 -8.68936441 47.11254928 -8.70024967 39.58481026 C-8.70547343 36.08956777 -8.71256191 32.59434959 -8.72387695 29.09912109 C-8.73679724 25.08300541 -8.7416699 21.06691535 -8.74609375 17.05078125 C-8.75125504 15.79242462 -8.75641632 14.53406799 -8.76173401 13.23757935 C-8.76180954 12.07652679 -8.76188507 10.91547424 -8.76196289 9.71923828 C-8.7641835 8.69331573 -8.76640411 7.66739319 -8.76869202 6.61038208 C-8.6484375 4.16796875 -8.6484375 4.16796875 -7.6484375 2.16796875 C-8.3084375 1.83796875 -8.9684375 1.50796875 -9.6484375 1.16796875 C-6.58175862 -0.36537069 -3.36519562 0.00506413 0 0 Z " fill="#46AFAC" transform="translate(358.6484375,137.83203125)"/>
<path d="M0 0 C0.33 0 0.66 0 1 0 C1.33 20.13 1.66 40.26 2 61 C7.28 61 12.56 61 18 61 C18 50.44 18 39.88 18 29 C19.32 28.67 20.64 28.34 22 28 C22.99 29.98 23.98 31.96 25 34 C23.68 33.67 22.36 33.34 21 33 C21.00785522 34.30988892 21.00785522 34.30988892 21.01586914 35.64624023 C21.03287751 38.87589273 21.04543369 42.10552245 21.05493164 45.33520508 C21.0599708 46.73495228 21.06680216 48.1346942 21.07543945 49.53442383 C21.0875232 51.54245777 21.09269807 53.55052957 21.09765625 55.55859375 C21.10551147 57.37315063 21.10551147 57.37315063 21.11352539 59.22436523 C21 62 21 62 20 63 C13.4 63 6.8 63 0 63 C0 42.21 0 21.42 0 0 Z " fill="#45B0AF" transform="translate(428,140)"/>
<path d="M0 0 C5.50058411 4.60514019 5.50058411 4.60514019 5.98046875 8.828125 C5.94566406 9.70984375 5.91085938 10.5915625 5.875 11.5 C5.84792969 12.39203125 5.82085937 13.2840625 5.79296875 14.203125 C5.75816406 14.87859375 5.72335938 15.5540625 5.6875 16.25 C3.94184889 13.03360346 3.483063 10.92986596 3.6875 7.25 C3.0275 7.25 2.3675 7.25 1.6875 7.25 C1.6875 5.93 1.6875 4.61 1.6875 3.25 C0.3675 2.92 -0.9525 2.59 -2.3125 2.25 C-2.3125 1.59 -2.3125 0.93 -2.3125 0.25 C-10.7093964 2.16373496 -10.7093964 2.16373496 -17.3125 7.25 C-17.98885591 10.26008845 -17.76551222 12.07891443 -17.3125 15.25 C-15.43172127 17.16256712 -15.43172127 17.16256712 -13.3125 18.25 C-13.3125 18.91 -13.3125 19.57 -13.3125 20.25 C-10.0125 20.25 -6.7125 20.25 -3.3125 20.25 C-2.9825 19.59 -2.6525 18.93 -2.3125 18.25 C-0.9925 18.25 0.3275 18.25 1.6875 18.25 C1.6875 19.57 1.6875 20.89 1.6875 22.25 C-3.08846401 24.45168554 -6.93858564 25.81156329 -12.125 24.3125 C-16.43237687 22.52026976 -18.47134357 20.65276537 -20.3125 16.25 C-21.01558307 12.09234531 -21.30876571 8.17165085 -19.32421875 4.34375 C-14.15797827 -2.18202745 -7.39163074 -3.90501246 0 0 Z " fill="#45A4A2" transform="translate(190.3125,112.75)"/>
<path d="M0 0 C3.9573463 0.41222357 6.90020768 0.95956691 10.625 2.46875 C15.34940262 4.29025263 19.98247499 4.76744606 25 5.1875 C25.87011719 5.26935547 26.74023438 5.35121094 27.63671875 5.43554688 C29.75691206 5.63358691 31.87835199 5.81820556 34 6 C34 6.33 34 6.66 34 7 C30.12514365 7.08751413 26.25054357 7.14056435 22.375 7.1875 C21.28058594 7.21263672 20.18617188 7.23777344 19.05859375 7.26367188 C13.20318317 7.31690288 8.93675502 7.29983099 4 4 C3.7525 4.598125 3.505 5.19625 3.25 5.8125 C1.82997292 8.29754739 0.27294041 9.31362486 -2 11 C-2.33 11.99 -2.66 12.98 -3 14 C-0.03 14.495 -0.03 14.495 3 15 C3.33 15.99 3.66 16.98 4 18 C0.04179141 17.43454163 -2.6659053 16.19097652 -6 14 C-5.57202798 8.29370646 -3.15654048 4.58921384 0 0 Z " fill="#37ABA9" transform="translate(533,183)"/>
<path d="M0 0 C1.20366211 0.00966797 1.20366211 0.00966797 2.43164062 0.01953125 C3.26501953 0.03628906 4.09839844 0.05304688 4.95703125 0.0703125 C6.22450195 0.08384766 6.22450195 0.08384766 7.51757812 0.09765625 C9.60168368 0.12120547 11.68564342 0.15707603 13.76953125 0.1953125 C13.76953125 1.1853125 13.76953125 2.1753125 13.76953125 3.1953125 C7.49953125 3.1953125 1.22953125 3.1953125 -5.23046875 3.1953125 C-4.90046875 7.8153125 -4.57046875 12.4353125 -4.23046875 17.1953125 C-1.50103338 17.24947991 1.22731689 17.28906475 3.95703125 17.3203125 C4.72595703 17.33707031 5.49488281 17.35382813 6.28710938 17.37109375 C10.52769597 17.40749363 13.98227286 17.34927114 17.76953125 15.1953125 C18.42953125 14.2053125 19.08953125 13.2153125 19.76953125 12.1953125 C20.09953125 14.1753125 20.42953125 16.1553125 20.76953125 18.1953125 C20.10953125 18.1953125 19.44953125 18.1953125 18.76953125 18.1953125 C18.43953125 19.1853125 18.10953125 20.1753125 17.76953125 21.1953125 C6.38453125 20.7003125 6.38453125 20.7003125 -5.23046875 20.1953125 C-5.23046875 19.5353125 -5.23046875 18.8753125 -5.23046875 18.1953125 C-5.89046875 18.1953125 -6.55046875 18.1953125 -7.23046875 18.1953125 C-7.31121078 15.56970141 -7.37083105 12.94655574 -7.41796875 10.3203125 C-7.44310547 9.57394531 -7.46824219 8.82757813 -7.49414062 8.05859375 C-7.5234375 5.890625 -7.5234375 5.890625 -7.23046875 2.1953125 C-4.12961304 0.12807536 -3.50115194 -0.04966173 0 0 Z " fill="#45ADAB" transform="translate(375.23046875,151.8046875)"/>
<path d="M0 0 C1.14726562 -0.00257813 2.29453125 -0.00515625 3.4765625 -0.0078125 C6.375 0.125 6.375 0.125 8.375 1.125 C9.56128696 4.38033899 9.49586542 7.5599817 9.48852539 10.99511719 C9.48844986 12.17603943 9.48837433 13.35696167 9.48829651 14.57366943 C9.48313522 15.84357727 9.47797394 17.11348511 9.47265625 18.421875 C9.4712413 19.72578186 9.46982635 21.02968872 9.46836853 22.37310791 C9.46455867 25.83203055 9.45474151 29.29091091 9.44366455 32.74981689 C9.43341746 36.28242419 9.42886385 39.81503836 9.42382812 43.34765625 C9.41311782 50.27345482 9.39605984 57.19922538 9.375 64.125 C9.045 64.125 8.715 64.125 8.375 64.125 C8.22913399 58.79468344 8.0869338 53.4642844 7.94775391 48.13378906 C7.90019494 46.33037851 7.85173052 44.52699156 7.80224609 42.72363281 C7.44995081 29.85407054 7.3126212 16.99929056 7.375 4.125 C6.25327393 4.1154126 5.13154785 4.1058252 3.97583008 4.09594727 C1.90793443 4.07827294 -0.15996204 4.05982031 -2.2277832 4.03491211 C-5.3089493 4.02212034 -7.68105196 4.14368399 -10.625 5.125 C-10.625 3.805 -10.625 2.485 -10.625 1.125 C-7.05854453 0.01816899 -3.7195207 -0.00839621 0 0 Z " fill="#66B4B3" transform="translate(507.625,137.875)"/>
<path d="M0 0 C0.33 0 0.66 0 1 0 C1 1.98 1 3.96 1 6 C2.79401245 5.97643433 2.79401245 5.97643433 4.62426758 5.95239258 C9.05779293 5.89812939 13.49128888 5.8636631 17.92504883 5.83520508 C19.84469538 5.8201102 21.7643074 5.79963227 23.68383789 5.77368164 C26.44165564 5.73732891 29.1990178 5.72028088 31.95703125 5.70703125 C32.81649857 5.69154739 33.67596588 5.67606354 34.56147766 5.66011047 C35.36208115 5.65988388 36.16268463 5.65965729 36.98754883 5.65942383 C38.04344963 5.64943108 38.04344963 5.64943108 39.12068176 5.63923645 C41.53899323 6.1034679 42.43850535 7.15164611 44 9 C43.67 9.66 43.34 10.32 43 11 C42.34 10.67 41.68 10.34 41 10 C37.9395806 9.84254174 34.898581 9.74133123 31.8359375 9.68359375 C30.92872955 9.66281265 30.02152161 9.64203156 29.08682251 9.62062073 C26.1829602 9.55512865 23.27900595 9.49624186 20.375 9.4375 C18.40884458 9.39431445 16.44269853 9.35070015 14.4765625 9.30664062 C9.65113638 9.19944761 4.8256176 9.09817919 0 9 C0 6.03 0 3.06 0 0 Z " fill="#5D585D" transform="translate(120,156)"/>
<path d="M0 0 C14.19 0 28.38 0 43 0 C43 0.33 43 0.66 43 1 C29.47 1 15.94 1 2 1 C2 3.64 2 6.28 2 9 C12.89 9 23.78 9 35 9 C35 10.65 35 12.3 35 14 C34.505 12.515 34.505 12.515 34 11 C22.78 11 11.56 11 0 11 C0 7.37 0 3.74 0 0 Z " fill="#696769" transform="translate(119,178)"/>
<path d="M0 0 C1.38555588 -0.00855011 1.38555588 -0.00855011 2.79910278 -0.01727295 C4.75782113 -0.02673845 6.71655552 -0.03326306 8.67529297 -0.03710938 C11.67573798 -0.0468117 14.6754973 -0.07781901 17.67578125 -0.109375 C19.57551675 -0.11590502 21.47525717 -0.1211555 23.375 -0.125 C24.27507782 -0.1373468 25.17515564 -0.1496936 26.10250854 -0.16241455 C26.93992584 -0.15941345 27.77734314 -0.15641235 28.64013672 -0.15332031 C29.37658417 -0.15696594 30.11303162 -0.16061157 30.87179565 -0.16436768 C33.37528013 0.30779258 34.28029328 1.21059638 35.8203125 3.203125 C35.8203125 3.863125 35.8203125 4.523125 35.8203125 5.203125 C34.8303125 4.873125 33.8403125 4.543125 32.8203125 4.203125 C32.8203125 3.543125 32.8203125 2.883125 32.8203125 2.203125 C18.9603125 2.203125 5.1003125 2.203125 -9.1796875 2.203125 C-8.81388213 9.32246757 -8.81388213 9.32246757 -8.43139648 16.44091797 C-8.12981871 22.80054503 -8.34057784 28.89099041 -9.1796875 35.203125 C-9.5096875 35.203125 -9.8396875 35.203125 -10.1796875 35.203125 C-10.2043394 30.37931698 -10.22252443 25.55554533 -10.23461914 20.73168945 C-10.23965924 19.08943036 -10.24649128 17.44717577 -10.25512695 15.80493164 C-10.26720676 13.44937021 -10.27291889 11.09386791 -10.27734375 8.73828125 C-10.28250504 7.99973404 -10.28766632 7.26118683 -10.29298401 6.5002594 C-10.29318 4.73414412 -10.24163469 2.96815354 -10.1796875 1.203125 C-8.01623805 -0.96032445 -3.00609045 0.01413024 0 0 Z " fill="#333031" transform="translate(110.1796875,137.796875)"/>
<path d="M0 0 C3.89419701 3.24516418 4.99702012 6.06868227 6 11 C6.502896 18.04054406 5.49960842 23.51667362 0.875 28.9375 C-0.07226422 29.96861297 -1.02689683 30.99323603 -2 32 C-2.66 31.67 -3.32 31.34 -4 31 C-4 30.01 -4 29.02 -4 28 C-3.01 28 -2.02 28 -1 28 C-0.34 26.02 0.32 24.04 1 22 C1.66 22 2.32 22 3 22 C3 18.7 3 15.4 3 12 C1.35 11.67 -0.3 11.34 -2 11 C-1.67 9.68 -1.34 8.36 -1 7 C-1.66 6.67 -2.32 6.34 -3 6 C-1.68 6 -0.36 6 1 6 C0.67 4.02 0.34 2.04 0 0 Z " fill="#28AFAD" transform="translate(411,148)"/>
<path d="M0 0 C1.98 0.66 3.96 1.32 6 2 C5.34852929 7.47235396 3.96510537 12.03489463 0 16 C-4.35248019 15.68910856 -8.48814234 14.90736324 -12.75 14 C-18.45919993 12.80836014 -24.18799202 12.37947818 -30 12 C-30 11.67 -30 11.34 -30 11 C-20.83305508 8.91885575 -9.61465661 8.96187972 -1 13 C-0.01 10.69 0.98 8.38 2 6 C2.66 6 3.32 6 4 6 C3.34 5.38125 2.68 4.7625 2 4.125 C0 2 0 2 0 0 Z " fill="#209793" transform="translate(582,141)"/>
<path d="M0 0 C1.46015291 0.28241641 2.91809793 0.57626614 4.375 0.875 C5.18710937 1.03742188 5.99921875 1.19984375 6.8359375 1.3671875 C9 2 9 2 11 4 C13.06874034 4.6425235 13.06874034 4.6425235 15 5 C15.33 4.34 15.66 3.68 16 3 C16.66 3.66 17.32 4.32 18 5 C20.19704511 5.67651207 20.19704511 5.67651207 22.625 6.125 C23.44226563 6.29257813 24.25953125 6.46015625 25.1015625 6.6328125 C25.72804688 6.75398437 26.35453125 6.87515625 27 7 C27 7.66 27 8.32 27 9 C27.66 9 28.32 9 29 9 C29 9.66 29 10.32 29 11 C29.99 11.33 30.98 11.66 32 12 C9.21985098 8.87388044 9.21985098 8.87388044 1 3 C0.67 2.01 0.34 1.02 0 0 Z " fill="#2AA8A6" transform="translate(531,168)"/>
<path d="M0 0 C2.5 2.3125 2.5 2.3125 5 5 C5 5.99 5 6.98 5 8 C5.66 8 6.32 8 7 8 C8.70312367 10.21940157 10.30316512 12.44036507 11.875 14.75 C14.67030546 18.83098008 17.33756822 22.62715585 21 26 C21.66 25.67 22.32 25.34 23 25 C22.67 25.99 22.34 26.98 22 28 C19.6875 28.6875 19.6875 28.6875 17 29 C14.79250619 27.50205777 14.11668502 26.55008654 13.5625 23.9375 C13.376875 23.298125 13.19125 22.65875 13 22 C12.38125 21.7525 11.7625 21.505 11.125 21.25 C8.08814223 19.46361308 7.85074107 17.19447277 6.78515625 13.9453125 C6.07178586 11.79937028 6.07178586 11.79937028 3.9375 10 C1.04891156 7.01823129 0.80679788 4.03398941 0 0 Z " fill="#3BB0AC" transform="translate(452,147)"/>
<path d="M0 0 C0.33 0 0.66 0 1 0 C1.01030746 0.7052179 1.02061493 1.41043579 1.03123474 2.13702393 C1.12926898 8.78755443 1.23179179 15.43799888 1.33933926 22.08838272 C1.39447071 25.50729472 1.44787477 28.92621542 1.49731445 32.34521484 C1.55424676 36.27710613 1.61872237 40.20885636 1.68359375 44.140625 C1.70030624 45.36678528 1.71701874 46.59294556 1.73423767 47.85626221 C1.75418289 48.99714294 1.77412811 50.13802368 1.79467773 51.31347656 C1.81022202 52.31719299 1.8257663 53.32090942 1.84178162 54.3550415 C1.933926 57.25752917 1.933926 57.25752917 3 61 C8.61 61.33 14.22 61.66 20 62 C20 62.33 20 62.66 20 63 C13.4 63 6.8 63 0 63 C0 42.21 0 21.42 0 0 Z " fill="#3C9A9A" transform="translate(428,140)"/>
<path d="M0 0 C2.5 1.375 2.5 1.375 5 3 C5 3.66 5 4.32 5 5 C8.3 5 11.6 5 15 5 C15.33 4.34 15.66 3.68 16 3 C17.32 3 18.64 3 20 3 C20 4.32 20 5.64 20 7 C15.14420876 9.23848533 11.37249536 10.55741647 6.125 8.9375 C2.81370996 7.58867032 0.49238564 6.41116718 -1 3 C-0.67 2.01 -0.34 1.02 0 0 Z " fill="#1C9E9E" transform="translate(172,128)"/>
<path d="M0 0 C1.32 0 2.64 0 4 0 C4 10.89 4 21.78 4 33 C2.515 33.495 2.515 33.495 1 34 C0.67 24.43 0.34 14.86 0 5 C-0.66 4.67 -1.32 4.34 -2 4 C-1.34 2.68 -0.68 1.36 0 0 Z " fill="#42B3B2" transform="translate(495,168)"/>
<path d="M0 0 C1.20527344 0.00322266 2.41054688 0.00644531 3.65234375 0.00976562 C4.90660156 0.01814453 6.16085937 0.02652344 7.453125 0.03515625 C9.35771484 0.04192383 9.35771484 0.04192383 11.30078125 0.04882812 C14.43494336 0.06061069 17.56901041 0.07706209 20.703125 0.09765625 C20.703125 0.42765625 20.703125 0.75765625 20.703125 1.09765625 C12.783125 1.09765625 4.863125 1.09765625 -3.296875 1.09765625 C-3.296875 1.75765625 -3.296875 2.41765625 -3.296875 3.09765625 C-6.266875 3.75765625 -9.236875 4.41765625 -12.296875 5.09765625 C-12.296875 5.75765625 -12.296875 6.41765625 -12.296875 7.09765625 C-15.266875 7.75765625 -18.236875 8.41765625 -21.296875 9.09765625 C-14.99147169 2.23589382 -9.11010411 -0.04297219 0 0 Z " fill="#53B4B3" transform="translate(554.296875,137.90234375)"/>
<path d="M0 0 C9.36749815 -0.1820896 18.6587308 0.38673965 28 1 C28 1.66 28 2.32 28 3 C18.62875081 5.08249982 9.23541402 4.28842117 0 2 C0 1.34 0 0.68 0 0 Z " fill="#4BAFAE" transform="translate(543,201)"/>
<path d="M0 0 C1.32 0 2.64 0 4 0 C4.66 1.32 5.32 2.64 6 4 C12.27 4.33 18.54 4.66 25 5 C25.33 3.68 25.66 2.36 26 1 C26.66 2.65 27.32 4.3 28 6 C25.74695699 8.25304301 20.78832549 7.56653705 17.75 7.75 C16.89019531 7.81832031 16.03039062 7.88664063 15.14453125 7.95703125 C10.2244468 8.25269118 6.96045816 8.32740247 3 5 C1.1875 2.3125 1.1875 2.3125 0 0 Z " fill="#47AEAC" transform="translate(390,196)"/>
<path d="M0 0 C-0.61277612 2.96175123 -1.25372522 4.38058783 -3 7 C-3.66 6.67 -4.32 6.34 -5 6 C-4.67 4.68 -4.34 3.36 -4 2 C-6.56314499 1.91867813 -9.12368418 1.85935825 -11.6875 1.8125 C-12.7693457 1.77479492 -12.7693457 1.77479492 -13.87304688 1.73632812 C-18.48427918 1.67316056 -21.31781233 2.19155177 -25 5 C-25.495 5.495 -25.99 5.99 -26.5 6.5 C-28.46818389 8.46818389 -30.52959883 9.7331276 -33 11 C-33.66 10.67 -34.32 10.34 -35 10 C-26.87838751 -3.57642685 -14.03935678 -1.04292365 0 0 Z " fill="#504B4E" transform="translate(252,111)"/>
<path d="M0 0 C1.56210161 -0.05459773 3.12477089 -0.09306101 4.6875 -0.125 C5.55761719 -0.14820313 6.42773438 -0.17140625 7.32421875 -0.1953125 C10 0 10 0 12.21875 0.9375 C16.32068156 2.50453003 20.46099222 2.72911339 24.8125 3.125 C26.13797852 3.25455078 26.13797852 3.25455078 27.49023438 3.38671875 C29.65952058 3.59778444 31.82968458 3.79979426 34 4 C34 4.33 34 4.66 34 5 C30.12514365 5.08751413 26.25054357 5.14056435 22.375 5.1875 C21.28058594 5.21263672 20.18617188 5.23777344 19.05859375 5.26367188 C13.18048611 5.31710922 9.13839787 5.16784723 4 2 C3.01 2 2.02 2 1 2 C0.34 2.66 -0.32 3.32 -1 4 C-0.67 2.68 -0.34 1.36 0 0 Z " fill="#1B9794" transform="translate(533,185)"/>
<path d="M0 0 C2.22808159 -0.10853983 4.45769932 -0.18583307 6.6875 -0.25 C7.92886719 -0.29640625 9.17023438 -0.3428125 10.44921875 -0.390625 C14.58880641 0.06477518 16.20729658 0.9456475 19 4 C19 5.32 19 6.64 19 8 C19.66 8 20.32 8 21 8 C21 8.66 21 9.32 21 10 C21.66 10 22.32 10 23 10 C23 10.66 23 11.32 23 12 C20.32399437 11.63089578 19.25277297 11.305434 17.5 9.1875 C17.005 8.465625 16.51 7.74375 16 7 C13.66639375 4.14043873 12.51319031 3.12331982 8.87890625 2.25 C5.89945185 2.02540037 2.98603328 1.92154921 0 2 C0 1.34 0 0.68 0 0 Z " fill="#3BA7A4" transform="translate(370,184)"/>
<path d="M0 0 C0.99 0.33 1.98 0.66 3 1 C2.8609223 5.56273224 2.71256366 10.12511691 2.5625 14.6875 C2.52318359 15.98107422 2.48386719 17.27464844 2.44335938 18.60742188 C2.40146484 19.85458984 2.35957031 21.10175781 2.31640625 22.38671875 C2.27974854 23.53358154 2.24309082 24.68044434 2.20532227 25.86206055 C2.02159702 28.66993278 1.6300618 31.26225814 1 34 C0.67 34 0.34 34 0 34 C0 22.78 0 11.56 0 0 Z " fill="#555254" transform="translate(46,168)"/>
<path d="M0 0 C0.33 0.99 0.66 1.98 1 3 C8.26 3.33 15.52 3.66 23 4 C22.67 4.66 22.34 5.32 22 6 C14.08 6 6.16 6 -2 6 C-2.33 4.68 -2.66 3.36 -3 2 C-2.01 1.34 -1.02 0.68 0 0 Z " fill="#7A7577" transform="translate(128,225)"/>
<path d="M0 0 C0.33 0 0.66 0 1 0 C0.67 2.31 0.34 4.62 0 7 C-0.66 7 -1.32 7 -2 7 C-2.33 8.98 -2.66 10.96 -3 13 C-3.66 13 -4.32 13 -5 13 C-5.33 13.66 -5.66 14.32 -6 15 C-7.97888961 15.72693904 -9.97954558 16.39816251 -12 17 C-4.11019567 4.91349125 -4.11019567 4.91349125 0 0 Z " fill="#3EADAC" transform="translate(489,151)"/>
<path d="M0 0 C7.80403627 0.6284363 14.81363641 2.69603155 21.85546875 6.15234375 C22.18546875 6.81234375 22.51546875 7.47234375 22.85546875 8.15234375 C14.79576726 7.63294076 14.79576726 7.63294076 11.04296875 5.71484375 C6.22496575 3.35307757 1.13602325 2.87863361 -4.14453125 2.15234375 C-2.14453125 0.15234375 -2.14453125 0.15234375 0 0 Z " fill="#4FB0AD" transform="translate(563.14453125,162.84765625)"/>
<path d="M0 0 C5.92648574 -0.07409532 11.85270253 -0.12857616 17.77954102 -0.16479492 C19.79619034 -0.17989179 21.81280679 -0.20037115 23.8293457 -0.22631836 C26.72615671 -0.26266211 29.62253406 -0.2797172 32.51953125 -0.29296875 C33.42274612 -0.30845261 34.325961 -0.32393646 35.25654602 -0.33988953 C36.5175135 -0.34022942 36.5175135 -0.34022942 37.80395508 -0.34057617 C38.54341873 -0.34723801 39.28288239 -0.35389984 40.04475403 -0.36076355 C42.55676732 0.10272946 43.45744635 1.00135691 45 3 C45 3.66 45 4.32 45 5 C44.01 4.67 43.02 4.34 42 4 C42 3.34 42 2.68 42 2 C28.14 1.67 14.28 1.34 0 1 C0 0.67 0 0.34 0 0 Z " fill="#4F4E4F" transform="translate(101,138)"/>
<path d="M0 0 C2.7073383 4.06100745 2.52302267 7.23559039 2 12 C0.27270396 16.72733653 -2.31686505 19.61549761 -6 23 C-6.66 22.67 -7.32 22.34 -8 22 C-6.515 18.535 -6.515 18.535 -5 15 C-4.34 15 -3.68 15 -3 15 C-2.86722656 14.28972656 -2.73445312 13.57945312 -2.59765625 12.84765625 C-2.42105469 11.92855469 -2.24445312 11.00945312 -2.0625 10.0625 C-1.88847656 9.14597656 -1.71445312 8.22945312 -1.53515625 7.28515625 C-1 5 -1 5 0 4 C0 2.68 0 1.36 0 0 Z " fill="#50B3B0" transform="translate(590,176)"/>
<path d="M0 0 C3.77076889 -0.05799124 7.54142334 -0.09359306 11.3125 -0.125 C12.38435547 -0.14175781 13.45621094 -0.15851563 14.56054688 -0.17578125 C15.58857422 -0.18222656 16.61660156 -0.18867188 17.67578125 -0.1953125 C18.62364502 -0.20578613 19.57150879 -0.21625977 20.5480957 -0.22705078 C23 0 23 0 26 2 C26 2.66 26 3.32 26 4 C25.34 4 24.68 4 24 4 C24 3.34 24 2.68 24 2 C16.41 2 8.82 2 1 2 C0.67 2.66 0.34 3.32 0 4 C0 2.68 0 1.36 0 0 Z " fill="#9A9699" transform="translate(148,138)"/>
<path d="M0 0 C0.66 0.33 1.32 0.66 2 1 C2 1.66 2 2.32 2 3 C2.66 3 3.32 3 4 3 C4 3.66 4 4.32 4 5 C5.32 5.66 6.64 6.32 8 7 C8 8.32 8 9.64 8 11 C0.08 11 -7.84 11 -16 11 C-16 10.67 -16 10.34 -16 10 C-5.605 9.505 -5.605 9.505 5 9 C5.33 8.34 5.66 7.68 6 7 C4.68 7 3.36 7 2 7 C1.34 4.69 0.68 2.38 0 0 Z M0 7 C0.66 7.33 1.32 7.66 2 8 C1.01 8 0.02 8 -1 8 C-0.67 7.67 -0.34 7.34 0 7 Z " fill="#6E6C6E" transform="translate(233,193)"/>
<path d="M0 0 C0.66 0 1.32 0 2 0 C2.34089597 8.35195119 0.85237448 13.60806127 -4.7578125 19.71484375 C-5.16773438 20.13894531 -5.57765625 20.56304687 -6 21 C-6.66 20.67 -7.32 20.34 -8 20 C-8 19.01 -8 18.02 -8 17 C-7.01 17 -6.02 17 -5 17 C-4.34 15.02 -3.68 13.04 -3 11 C-2.34 11 -1.68 11 -1 11 C-0.67 7.37 -0.34 3.74 0 0 Z " fill="#53B7B4" transform="translate(415,159)"/>
<path d="M0 0 C6.09498863 -0.42034404 9.12887953 -0.07814737 14 4 C16.84843954 7.11716025 17.35301685 9.05690638 17.1875 13.25 C17.16042969 14.14203125 17.13335937 15.0340625 17.10546875 15.953125 C17.07066406 16.62859375 17.03585938 17.3040625 17 18 C15.25434889 14.78360346 14.795563 12.67986596 15 9 C14.34 9 13.68 9 13 9 C13 7.68 13 6.36 13 5 C11.68 4.67 10.36 4.34 9 4 C9 3.34 9 2.68 9 2 C6.03 1.67 3.06 1.34 0 1 C0 0.67 0 0.34 0 0 Z " fill="#62ADAC" transform="translate(179,111)"/>
<path d="M0 0 C3.12492251 -0.05791844 6.24970766 -0.09356746 9.375 -0.125 C10.26445312 -0.14175781 11.15390625 -0.15851563 12.0703125 -0.17578125 C12.92109375 -0.18222656 13.771875 -0.18867188 14.6484375 -0.1953125 C15.82672119 -0.21102295 15.82672119 -0.21102295 17.02880859 -0.22705078 C19 0 19 0 21 2 C17.71855481 3.64072259 14.10210004 3.14274434 10.5 3.125 C9.71496094 3.12886719 8.92992187 3.13273438 8.12109375 3.13671875 C2.25330787 3.12665394 2.25330787 3.12665394 0 2 C0 1.34 0 0.68 0 0 Z " fill="#4BADA6" transform="translate(313,201)"/>
<path d="M0 0 C11.55 0 23.1 0 35 0 C35.66 1.32 36.32 2.64 37 4 C36.16194824 3.67854004 35.32389648 3.35708008 34.46044922 3.02587891 C30.71546283 1.91564659 27.53320711 1.6826415 23.6328125 1.5859375 C22.95322479 1.56657135 22.27363708 1.5472052 21.57345581 1.5272522 C19.42409421 1.46794901 17.27467759 1.42127109 15.125 1.375 C13.6588321 1.33677468 12.19268557 1.29772036 10.7265625 1.2578125 C7.15123836 1.16228956 3.57575252 1.07807874 0 1 C0 0.67 0 0.34 0 0 Z " fill="#323033" transform="translate(127,163)"/>
<path d="M0 0 C0.66 1.32 1.32 2.64 2 4 C-0.84304987 6.84304987 -3.00266064 8.32780773 -7 8.5625 C-10.54719287 8.40798213 -11.05603716 7.95330237 -14 5.5 C-14.66 4.675 -15.32 3.85 -16 3 C-15.34 2.67 -14.68 2.34 -14 2 C-13.2575 2.7115625 -13.2575 2.7115625 -12.5 3.4375 C-9.00531349 5.62167907 -6.09033064 5.65913911 -2 6 C-2 5.34 -2 4.68 -2 4 C-1.34 4 -0.68 4 0 4 C0 2.68 0 1.36 0 0 Z " fill="#71B6B2" transform="translate(479,190)"/>
<path d="M0 0 C-0.99 0.66 -1.98 1.32 -3 2 C-0.45395403 5.52381687 -0.45395403 5.52381687 3 8 C2.67 8.66 2.34 9.32 2 10 C-0.97 9.505 -0.97 9.505 -4 9 C-4.144375 8.2575 -4.28875 7.515 -4.4375 6.75 C-4.90187492 4.47972261 -5.41863569 2.24240521 -6 0 C-3.50907189 -1.24546405 -2.58919267 -0.7767578 0 0 Z " fill="#43B5B2" transform="translate(407,181)"/>
<path d="M0 0 C0.66 0 1.32 0 2 0 C2.5775 0.66 3.155 1.32 3.75 2 C5.87875425 4.2725347 5.87875425 4.2725347 9 4.375 C11.83526512 4.02059186 13.58950039 3.48338437 16 2 C16 2.99 16 3.98 16 5 C15.34 5 14.68 5 14 5 C14 5.66 14 6.32 14 7 C9.19771544 7.33119204 6.83582992 7.43284049 2.5 5.1875 C1.675 4.465625 0.85 3.74375 0 3 C0 2.01 0 1.02 0 0 Z " fill="#149D99" transform="translate(463,189)"/>
<path d="M0 0 C8.25 0 16.5 0 25 0 C24.67 0.66 24.34 1.32 24 2 C20.18015204 2.77811718 17.73159669 3.24386556 14 2 C11.60745424 1.77439324 9.21071877 1.59151405 6.8125 1.4375 C5.54019531 1.35371094 4.26789062 1.26992187 2.95703125 1.18359375 C1.98121094 1.12300781 1.00539063 1.06242188 0 1 C0 0.67 0 0.34 0 0 Z " fill="#159A98" transform="translate(551,139)"/>
<path d="M0 0 C0 4.07300169 -1.58452534 5.77936711 -4 9 C-6.0625 10.9375 -6.0625 10.9375 -8 12 C-8.99 11.67 -9.98 11.34 -11 11 C-9.71034824 9.62437146 -8.37310707 8.29233607 -7 7 C-6.34 7 -5.68 7 -5 7 C-4.731875 6.401875 -4.46375 5.80375 -4.1875 5.1875 C-3.01506533 3.02775192 -1.80630718 1.64209744 0 0 Z " fill="#4B494A" transform="translate(158,194)"/>
<path d="M0 0 C6.6 0 13.2 0 20 0 C19 4 19 4 17 7 C16.34 6.67 15.68 6.34 15 6 C15.33 4.68 15.66 3.36 16 2 C10.72 1.67 5.44 1.34 0 1 C0 0.67 0 0.34 0 0 Z " fill="#706F70" transform="translate(232,111)"/>
<path d="M0 0 C1.32 0.33 2.64 0.66 4 1 C5.5912689 5.873261 6.21192221 9.80790596 6 15 C5.67 15 5.34 15 5 15 C4.731875 13.989375 4.46375 12.97875 4.1875 11.9375 C3.10882759 8.12722553 1.59343975 4.62145398 0 1 C0 0.67 0 0.34 0 0 Z " fill="#24A09C" transform="translate(585,172)"/>
<path d="M0 0 C0 2.66666667 0 5.33333333 0 8 C-3.07322544 8.91058531 -5.80097361 9.08886184 -9 9 C-8.67 8.34 -8.34 7.68 -8 7 C-7.01 7 -6.02 7 -5 7 C-4.731875 6.21625 -4.46375 5.4325 -4.1875 4.625 C-3 2 -3 2 0 0 Z " fill="#1A9E9D" transform="translate(479,167)"/>
<path d="M0 0 C0.33 0 0.66 0 1 0 C3.55 7.48 3.55 7.48 4 10 C3.67 10.66 3.34 11.32 3 12 C2.01 12 1.02 12 0 12 C-1.12256131 9.75487738 -1.13413762 8.48543351 -1.125 6 C-1.12886719 4.948125 -1.12886719 4.948125 -1.1328125 3.875 C-1 2 -1 2 0 0 Z " fill="#199C9B" transform="translate(530,156)"/>
<path d="M0 0 C0 3.83647232 -1.08617098 5.79540721 -3.375 8.8125 C-3.91125 9.204375 -4.4475 9.59625 -5 10 C-7.1015625 9.57421875 -7.1015625 9.57421875 -9 9 C-7.87895467 7.68412059 -6.75303035 6.37239647 -5.625 5.0625 C-4.99851563 4.33160156 -4.37203125 3.60070312 -3.7265625 2.84765625 C-2 1 -2 1 0 0 Z " fill="#514C4E" transform="translate(206,133)"/>
<path d="M0 0 C1.32 0 2.64 0 4 0 C3.67 0.99 3.34 1.98 3 3 C-4.59 3 -12.18 3 -20 3 C-20 2.67 -20 2.34 -20 2 C-19.42967041 1.97494385 -18.85934082 1.9498877 -18.27172852 1.92407227 C-15.70173843 1.80843451 -13.13214473 1.68556376 -10.5625 1.5625 C-9.66466797 1.52318359 -8.76683594 1.48386719 -7.84179688 1.44335938 C-6.98779297 1.40146484 -6.13378906 1.35957031 -5.25390625 1.31640625 C-4.46314697 1.27974854 -3.6723877 1.24309082 -2.85766602 1.20532227 C-0.98598559 1.19436743 -0.98598559 1.19436743 0 0 Z " fill="#211D1E" transform="translate(235,200)"/>
<path d="M0 0 C0.33 0.66 0.66 1.32 1 2 C1.66 2.33 2.32 2.66 3 3 C2.67 3.99 2.34 4.98 2 6 C4.97 6.495 4.97 6.495 8 7 C8.33 7.99 8.66 8.98 9 10 C5.04179141 9.43454163 2.3340947 8.19097652 -1 6 C-0.67 4.02 -0.34 2.04 0 0 Z " fill="#48ADAC" transform="translate(528,191)"/>
<path d="M0 0 C0.66 0 1.32 0 2 0 C1.36276989 3.47290409 -0.02437217 5.84354753 -2 8.75 C-2.804375 9.94882813 -2.804375 9.94882813 -3.625 11.171875 C-4.07875 11.77515625 -4.5325 12.3784375 -5 13 C-5.33 13 -5.66 13 -6 13 C-6.1875 10.6875 -6.1875 10.6875 -6 8 C-4.6875 6.5 -4.6875 6.5 -3 5 C-2.484375 4.113125 -1.96875 3.22625 -1.4375 2.3125 C-0.7259375 1.1678125 -0.7259375 1.1678125 0 0 Z " fill="#4CADA9" transform="translate(492,172)"/>
<path d="M0 0 C1.32 0.33 2.64 0.66 4 1 C3.360625 1.2475 2.72125 1.495 2.0625 1.75 C-0.1375747 2.81731571 -0.1375747 2.81731571 -0.875 4.9375 C-1.22738107 7.31328252 -1.22738107 7.31328252 1 10 C-0.9375 9.3125 -0.9375 9.3125 -3 8 C-3.75 5.375 -3.75 5.375 -4 3 C-2.68 2.67 -1.36 2.34 0 2 C0 1.34 0 0.68 0 0 Z " fill="#565253" transform="translate(205,158)"/>
<path d="M0 0 C0.33 0 0.66 0 1 0 C1.2396943 5.63281599 0.38529821 10.54538831 -1 16 C-3.47787534 11.73043018 -3.04668791 8.686089 -2 4 C-0.9375 1.5 -0.9375 1.5 0 0 Z " fill="#68BDBD" transform="translate(530,149)"/>
<path d="M0 0 C0.33 0.99 0.66 1.98 1 3 C0.505 3.433125 0.01 3.86625 -0.5 4.3125 C-2.33218192 5.99740483 -2.33218192 5.99740483 -2 9 C-3.98 9 -5.96 9 -8 9 C-7.04270084 7.87411986 -6.08412105 6.7493285 -5.125 5.625 C-4.59132812 4.99851563 -4.05765625 4.37203125 -3.5078125 3.7265625 C-2.38567993 2.44163349 -1.20628025 1.20628025 0 0 Z " fill="#474346" transform="translate(196,143)"/>
<path d="M0 0 C2 3.75 2 3.75 2 6 C1.34 6 0.68 6 0 6 C-0.33 6.99 -0.66 7.98 -1 9 C-3.31 9 -5.62 9 -8 9 C-8 8.67 -8 8.34 -8 8 C-6.35 7.67 -4.7 7.34 -3 7 C-3.99 6.34 -4.98 5.68 -6 5 C-5.195625 4.731875 -4.39125 4.46375 -3.5625 4.1875 C-2.716875 3.795625 -1.87125 3.40375 -1 3 C-0.67 2.01 -0.34 1.02 0 0 Z " fill="#3BB5B1" transform="translate(394,164)"/>
<path d="M0 0 C2.5 2.3125 2.5 2.3125 5 5 C5 5.99 5 6.98 5 8 C5.66 8 6.32 8 7 8 C7.66 9.32 8.32 10.64 9 12 C5.70743319 11.43231607 3.95543082 10.75537978 2 8 C1.15642064 5.3487506 0.58147461 2.72845777 0 0 Z " fill="#53B8B5" transform="translate(452,147)"/>
<path d="M0 0 C0.99 0.66 1.98 1.32 3 2 C1.75023244 5.65316671 1.32901247 6.78065836 -2 9 C-2.99 9 -3.98 9 -5 9 C-3.50163895 5.88801935 -1.80066242 2.9465385 0 0 Z " fill="#45B5B4" transform="translate(496,140)"/>
<path d="M0 0 C2.4375 1.1875 2.4375 1.1875 5 3 C5.8125 5.6875 5.8125 5.6875 6 8 C3.625 7.3125 3.625 7.3125 1 6 C-0.3125 3.375 -0.3125 3.375 -1 1 C-0.67 0.67 -0.34 0.34 0 0 Z " fill="#4DB0B0" transform="translate(172,128)"/>
<path d="M0 0 C1.32 0 2.64 0 4 0 C3.45773019 3.79588866 1.79872437 5.47211993 -1 8 C-1.66 7.67 -2.32 7.34 -3 7 C-2.01 4.69 -1.02 2.38 0 0 Z " fill="#39A8A5" transform="translate(585,191)"/>
<path d="M0 0 C5.36513131 0.847126 10.6787385 1.91681831 16 3 C16 3.33 16 3.66 16 4 C14.27119018 4.05449838 12.54187288 4.09301688 10.8125 4.125 C9.84957031 4.14820313 8.88664063 4.17140625 7.89453125 4.1953125 C4.87187222 3.9913544 2.73230015 3.26874632 0 2 C0 1.34 0 0.68 0 0 Z " fill="#76BDBC" transform="translate(540,185)"/>
<path d="M0 0 C2.0625 0.4375 2.0625 0.4375 4 1 C4 2.98 4 4.96 4 7 C2.0625 6.25 2.0625 6.25 0 5 C-0.8125 2.9375 -0.8125 2.9375 -1 1 C-0.67 0.67 -0.34 0.34 0 0 Z " fill="#21A59F" transform="translate(457,179)"/>
<path d="M0 0 C0.66 0 1.32 0 2 0 C2.08159574 4.16138263 1.98248524 7.9472484 1 12 C0.34 12 -0.32 12 -1 12 C-0.67 8.04 -0.34 4.08 0 0 Z " fill="#46A4A5" transform="translate(415,159)"/>
<path d="M0 0 C4.29 0 8.58 0 13 0 C13 0.33 13 0.66 13 1 C8.545 1.495 8.545 1.495 4 2 C3.67 3.32 3.34 4.64 3 6 C1.5 4.6875 1.5 4.6875 0 3 C0 2.01 0 1.02 0 0 Z " fill="#312F32" transform="translate(149,140)"/>
<path d="M0 0 C4.67461851 -0.32613618 7.16674383 0.29417212 11 3 C7.19010598 4.46534385 4.6758821 3.55203911 1 2 C0.67 1.34 0.34 0.68 0 0 Z " fill="#3EB1AD" transform="translate(575,167)"/>
<path d="M0 0 C0.33 0.99 0.66 1.98 1 3 C-1.80804268 5.96404505 -4.18315774 8.44499019 -8 10 C-6.66415278 5.99245833 -4.23106172 4.62523764 -1 2 C-0.67 1.34 -0.34 0.68 0 0 Z " fill="#6D6B6B" transform="translate(141,211)"/>
<path d="M0 0 C1.051875 0.474375 2.10375 0.94875 3.1875 1.4375 C6.10175851 2.69323741 8.84746914 3.52234381 12 4 C12 4.33 12 4.66 12 5 C10.56260487 5.02712066 9.12506137 5.04645067 7.6875 5.0625 C6.48673828 5.07990234 6.48673828 5.07990234 5.26171875 5.09765625 C3 5 3 5 0 4 C0 2.68 0 1.36 0 0 Z " fill="#4FB1AD" transform="translate(549,158)"/>
<path d="M0 0 C1.98 0.66 3.96 1.32 6 2 C5.5020163 5.73487777 5.12508244 7.81237635 3 11 C3.0928125 9.329375 3.0928125 9.329375 3.1875 7.625 C3.125625 6.42875 3.06375 5.2325 3 4 C2.01 3.34 1.02 2.68 0 2 C0 1.34 0 0.68 0 0 Z " fill="#66B7B2" transform="translate(582,141)"/>
<path d="M0 0 C2.00720923 0.28674418 4.0085944 0.61866701 6 1 C6 1.99 6 2.98 6 4 C2.37 3.67 -1.26 3.34 -5 3 C-3.68 2.34 -2.36 1.68 -1 1 C-0.67 0.67 -0.34 0.34 0 0 Z " fill="#3AB1AF" transform="translate(576,139)"/>
<path d="M0 0 C-9.41002278 3.62870159 -9.41002278 3.62870159 -14 2 C-9.38048134 -0.66510692 -5.12794215 -1.46986273 0 0 Z " fill="#6EB9B9" transform="translate(192,135)"/>
<path d="M0 0 C0.99 0.99 1.98 1.98 3 3 C2.67 3.99 2.34 4.98 2 6 C-1.63 6 -5.26 6 -9 6 C-9 5.67 -9 5.34 -9 5 C-6.03 5 -3.06 5 0 5 C0 3.35 0 1.7 0 0 Z " fill="#68B7B0" transform="translate(415,197)"/>
<path d="M0 0 C3.78520613 0.54074373 5.59177555 2.07572746 8 5 C8 5.99 8 6.98 8 8 C7.34 8 6.68 8 6 8 C2 3.52941176 2 3.52941176 2 1 C1.34 0.67 0.68 0.34 0 0 Z " fill="#494546" transform="translate(52,175)"/>
<path d="M0 0 C0.66 0.33 1.32 0.66 2 1 C0.25 7.75 0.25 7.75 -2 10 C-4.125 9.625 -4.125 9.625 -6 9 C-5.01 9 -4.02 9 -3 9 C-2.01 6.03 -1.02 3.06 0 0 Z " fill="#48A49F" transform="translate(584,147)"/>
<path d="M0 0 C-0.66 1.32 -1.32 2.64 -2 4 C-2.33 3.01 -2.66 2.02 -3 1 C-4.32 1 -5.64 1 -7 1 C-7.33 1.99 -7.66 2.98 -8 4 C-8.66 3.67 -9.32 3.34 -10 3 C-9.67 2.01 -9.34 1.02 -9 0 C-3.375 -1.125 -3.375 -1.125 0 0 Z " fill="#41B6B6" transform="translate(195,130)"/>
<path d="M0 0 C0.66 0 1.32 0 2 0 C2 0.66 2 1.32 2 2 C3.65 1.67 5.3 1.34 7 1 C6.67 2.98 6.34 4.96 6 7 C1.125 3.375 1.125 3.375 0 0 Z " fill="#444244" transform="translate(198,185)"/>
<path d="M0 0 C0.66 0 1.32 0 2 0 C0.73058503 3.91402949 -0.51167694 5.79072873 -4 8 C-4.66 7.67 -5.32 7.34 -6 7 C-4.71937515 5.2925002 -3.38232443 3.62626404 -2 2 C-1.34 2 -0.68 2 0 2 C0 1.34 0 0.68 0 0 Z " fill="#4B4A4B" transform="translate(172,179)"/>
<path d="M0 0 C0 0.66 0 1.32 0 2 C0.99 2.33 1.98 2.66 3 3 C-1.34464536 2.39174965 -5.67551867 1.73832608 -10 1 C-10 0.67 -10 0.34 -10 0 C-6.30458414 -0.95024979 -3.69541586 -0.95024979 0 0 Z " fill="#5ABAB7" transform="translate(560,177)"/>
<path d="M0 0 C3.48330216 0.64505596 6.09432866 1.98217268 9 4 C9 4.66 9 5.32 9 6 C2.42696629 4.1011236 2.42696629 4.1011236 0 1 C0 0.67 0 0.34 0 0 Z " fill="#53AAA9" transform="translate(531,168)"/>
<path d="M0 0 C0.33 0 0.66 0 1 0 C0.67 2.31 0.34 4.62 0 7 C-1.32 7 -2.64 7 -4 7 C-2.92598892 4.08482708 -2.22189824 2.22189824 0 0 Z " fill="#49B1AF" transform="translate(489,151)"/>
<path d="M0 0 C1.77007714 -0.08114106 3.54122098 -0.13925505 5.3125 -0.1875 C6.29863281 -0.22230469 7.28476562 -0.25710937 8.30078125 -0.29296875 C11 0 11 0 12.85546875 1.51171875 C13.23316406 2.00285156 13.61085938 2.49398437 14 3 C9.33333333 2.33333333 4.66666667 1.66666667 0 1 C0 0.67 0 0.34 0 0 Z " fill="#6ABDBE" transform="translate(564,153)"/>
<path d="M0 0 C2.3125 0.1875 2.3125 0.1875 4 1 C4 1.66 4 2.32 4 3 C1.03 3.66 -1.94 4.32 -5 5 C-2.75 2.4375 -2.75 2.4375 0 0 Z " fill="#41ABAA" transform="translate(538,142)"/>
<path d="M0 0 C1.32 0 2.64 0 4 0 C4 0.99 4 1.98 4 3 C4.66 3 5.32 3 6 3 C5.67 4.32 5.34 5.64 5 7 C4.731875 6.360625 4.46375 5.72125 4.1875 5.0625 C3.11332248 2.66868314 3.11332248 2.66868314 0 2 C0 1.34 0 0.68 0 0 Z " fill="#555455" transform="translate(208,195)"/>
<path d="M0 0 C3.3 0 6.6 0 10 0 C10.66 1.32 11.32 2.64 12 4 C6.06 2.515 6.06 2.515 0 1 C0 0.67 0 0.34 0 0 Z " fill="#4C4B4D" transform="translate(152,163)"/>
<path d="M0 0 C3.125 0.375 3.125 0.375 6 1 C6.33 2.32 6.66 3.64 7 5 C6.01 4.67 5.02 4.34 4 4 C4 3.34 4 2.68 4 2 C2.02 2 0.04 2 -2 2 C-1.34 1.34 -0.68 0.68 0 0 Z " fill="#5C5B5C" transform="translate(139,138)"/>
<path d="M0 0 C0.66 0.33 1.32 0.66 2 1 C-0.31 3.31 -2.62 5.62 -5 8 C-5.66 7.01 -6.32 6.02 -7 5 C-6.01 5 -5.02 5 -4 5 C-3.67 4.01 -3.34 3.02 -3 2 C-2.01 1.34 -1.02 0.68 0 0 Z " fill="#696667" transform="translate(238,126)"/>
<path d="M0 0 C2.97 0.99 5.94 1.98 9 3 C9 3.33 9 3.66 9 4 C6.69 4 4.38 4 2 4 C1.34 2.68 0.68 1.36 0 0 Z " fill="#12A6A3" transform="translate(394,197)"/>
<path d="M0 0 C-0.99 0.66 -1.98 1.32 -3 2 C-2.67 3.32 -2.34 4.64 -2 6 C-3.37562854 4.71034824 -4.70766393 3.37310707 -6 2 C-6 1.34 -6 0.68 -6 0 C-3.50907189 -1.24546405 -2.58919267 -0.7767578 0 0 Z " fill="#37A8A8" transform="translate(407,181)"/>
<path d="M0 0 C1.98 0.99 1.98 0.99 4 2 C4 2.66 4 3.32 4 4 C4.66 4 5.32 4 6 4 C6 4.66 6 5.32 6 6 C4.02 5.34 2.04 4.68 0 4 C0 2.68 0 1.36 0 0 Z " fill="#4C434A" transform="translate(206,168)"/>
<path d="M0 0 C0.66 0.33 1.32 0.66 2 1 C1.67 3.31 1.34 5.62 1 8 C0.34 7.67 -0.32 7.34 -1 7 C-1.75 4.5625 -1.75 4.5625 -2 2 C-1.34 1.34 -0.68 0.68 0 0 Z " fill="#20A3A0" transform="translate(548,154)"/>
<path d="M0 0 C1.7074998 1.28062485 3.37373596 2.61767557 5 4 C5 4.66 5 5.32 5 6 C3.35 6 1.7 6 0 6 C-0.33 5.34 -0.66 4.68 -1 4 C-0.34 4 0.32 4 1 4 C0.67 2.68 0.34 1.36 0 0 Z " fill="#444244" transform="translate(50,145)"/>
<path d="M0 0 C1.98 0 3.96 0 6 0 C6 1.98 6 3.96 6 6 C3.97945196 4.35830472 1.97956942 2.69088222 0 1 C0 0.67 0 0.34 0 0 Z " fill="#635B63" transform="translate(62,186)"/>
<path d="M0 0 C2.62187494 1.04874998 3.79371361 1.64931313 5.25 4.125 C5.4975 4.74375 5.745 5.3625 6 6 C5.01 6.495 5.01 6.495 4 7 C0 2.25 0 2.25 0 0 Z " fill="#42AAA7" transform="translate(459,159)"/>
<path d="M0 0 C0.33 0.66 0.66 1.32 1 2 C1.66 2.33 2.32 2.66 3 3 C1.68 3.33 0.36 3.66 -1 4 C-1 4.66 -1 5.32 -1 6 C-1.66 6 -2.32 6 -3 6 C-3 4.68 -3 3.36 -3 2 C-2.01 1.34 -1.02 0.68 0 0 Z " fill="#1AA09E" transform="translate(493,147)"/>
</svg>
